<?xml version="1.0" encoding="UTF-8"?>
<svg version="1.1" viewBox="0 0 1675 1010" width="1280" height="1280" xmlns="http://www.w3.org/2000/svg">
<path transform="translate(617)" d="m0 0h194v98h-82v83h752v-49h194v117h-84v136h83v117h-194v-117h94v-136h-93v-51h-752v44h595v21h99v117h-194v-117h78v-4h-199v13h79v117h-194v-117h98v-13h-197v13h88v117h-194v-56h-2l1-11-3-2 4-1v-47h89v-13h-217v160h150v117h-150v35h152v117h-152v49h156v117h-156v39h162v117h-194v-117h15v-39h-21v-117h21v-49h-25v-117h25v-35h-27v-117h27v-66h-40v50h-94v23h97v56h3l-2 4-1 3h2v2h-2v20h4v8l-3 1-1 23h-97v28h93v84h5l-2 4-2 2 3 1v2h-4v24h-194v-117h84v-28h-80v-23l-4-1 2-11h2v-82h80v-23h-83v-50h-5v-17h5v-50h73v-26h17v24l3 1 101 1 3 5v6l-2 3-1 36h40v-77h-307v27h67l3 7v6l-2 3-1 101h-78v23h78v117h-194v-117h99v-23h-99v-117h110v-44h393v-44h-89v29h-194v-29h-235v61h-103v141h102v117h-193v-117h74v-141h-74v-117h194v39h235v-71h194v71h89v-83h-95zm-11 513 1 2 1-2zm0 3 1 2zm-4 140 1 2z" fill="#B2AEAE"/>
<path transform="translate(616,419)" d="m0 0h194v117h-150v35h152v117h-152v49h156v117h-156v39h162v117h-194v-117h15v-39h-21v-117h21v-49h-25v-117h25v-35h-27z" fill="#FAFAFA"/>
<path transform="translate(429,110)" d="m0 0h194v117h-194v-29h-235v61h-103v141h102v117h-193v-117h74v-141h-74v-117h194v39h235z" fill="#FAFAFA"/>
<path transform="translate(1481,132)" d="m0 0h194v117h-84v136h83v117h-194v-117h94v-136h-93z" fill="#FAFAFA"/>
<path transform="translate(492,403)" d="m0 0h17v23h97v56h3l-2 4-1 3h2v2h-2v20h4v8l-3 1-1 23h-97v28h93v84h5l-2 4-2 2 3 1v2h-4v24h-194v-117h84v-28h-80v-23l-4-1 2-11h2v-82h80zm114 110 1 2 1-2zm0 3 1 2zm-4 140 1 2z" fill="#F0F0F0"/>
<path transform="translate(616,419)" d="m0 0h194v117h-150v35h152v117h-194v-117h25v-35h-27z" fill="#FBFBFB"/>
<path transform="translate(209,286)" d="m0 0h194l3 7v6l-2 3-1 101h-78v23h78v117h-194v-117h99v-23h-99z" fill="#F9F9F9"/>
<path transform="translate(74,259)" d="m0 0h17v141h102v117h-193v-117h74z" fill="#F8F8F8"/>
<path transform="translate(643,854)" d="m0 0h17v39h162v117h-194v-117h15z" fill="#F9F9F9"/>
<path transform="translate(482,260)" d="m0 0h17v24l3 1 101 1 3 5v6l-2 3-1 103h-194v-50h-5v-17h5v-50h73z" fill="#F9F9F9"/>
<path transform="translate(408,571)" d="m0 0h194v84h5l-2 4-2 2 3 1v2h-4v24h-194zm194 85 1 2z" fill="#F5F4F4"/>
<path transform="translate(788,272)" d="m0 0h194v117h-194v-56h-2l1-11-3-2 4-1z" fill="#F7F7F7"/>
<path transform="translate(618,571)" d="m0 0h194v117h-194z" fill="#FBFBFB"/>
<path transform="translate(209,426)" d="m0 0h194v117h-194z" fill="#F6F6F6"/>
<path transform="translate(993,272)" d="m0 0h194v117h-194z" fill="#F7F7F7"/>
<path transform="translate(1229,263)" d="m0 0h194v117h-194z" fill="#F8F8F8"/>
<path transform="translate(1481,132)" d="m0 0h194v117h-194z" fill="#FBFBFB"/>
<path transform="translate(429,110)" d="m0 0h194v117h-194z" fill="#FBFBFB"/>
<path transform="translate(617)" d="m0 0h194v98h-194z" fill="#F8F8F8"/>
<path transform="translate(194,181)" d="m0 0h235v17h-235z" fill="#B2AEAE"/>
<path transform="translate(74,259)" d="m0 0h17v141h-17z" fill="#B2AEAE"/>
<path transform="translate(1574,249)" d="m0 0h17v136h-17z" fill="#B2AEAE"/>
<path transform="translate(472,451)" d="m0 0h7l2 2v6h2l1-5h2l1 2 2-2h5v2h-4l5 2 3-7h2v6h2v-2l6-1 1 4-4-2-2 5 6-1 2 1 1-7h2l1 5 3-5h5v-3h2v3h4l1 4 2-4 2 1-6 12 1 4-1 5-4-1 2-3-3 3v2l-3-1-1-2-1 2h-2v-6h-2l-2 6h-4l-5 1-3-2-5 1 2-4-2-1h2v-2l-6 1h-3l1 7-4-1 1-6h-2l-2 6-7 1-2-3-1 2-4-1-2-5-2 6h-1l1-11h4l2 5 1-6-1-3z" fill="#DBDADA"/>
<path transform="translate(643,688)" d="m0 0h17v49h-17z" fill="#B2AEAE"/>
<path transform="translate(643,854)" d="m0 0h17v39h-17z" fill="#B2AEAE"/>
<path transform="translate(433,478)" d="m0 0 5 2v3l-3-1v-2l-3 1-1 7 9-1v-6l1-2h7l2 2v4l3-3 2-3h3l2 12h-2v5l-5-2-2 4v3l6-1-1 3-6 1-4-3-3 3-7-1v-2h6l1-2-5-1-2-2-2 8h-3l1-8-4 8h-2l-2-6-2 6h-1l1-11 1-2h-2l2-11 3-1v5l4-5z" fill="#E9E7E7"/>
<path transform="translate(721,893)" d="m0 0h39l3 4-3 1-5-2v3l6 2 1 5-3 3h-8l-3-3-2 3h-3l-1-3h-2v2l-2 1h-8l-2-2-1 2h-4v-3h-6l-1 3h-2l2-6z" fill="#E7E6E6"/>
<path transform="translate(474,479)" d="m0 0h8l2 4 7-1 2 2 2-2h6v2l-5-1v2l10 1-1 5-4 3 2 2v3l-3-1 1-2-3 2 1 4 3-1v2l-6 1-3-2-2 2h-5v-3l4 1-4-2-5 4-5-1-2-3-1 3-5 1v-2l2-1 1-3v-9l2-9z" fill="#DAD9D9"/>
<path transform="translate(643,536)" d="m0 0h17v35h-17z" fill="#B2AEAE"/>
<path transform="translate(492,543)" d="m0 0h17v28h-17z" fill="#B2AEAE"/>
<path transform="translate(563,468)" d="m0 0h7v3l4-3h5l1 1v5l5-4-3-2h7l-4 6 3 1v2l2 2-5 1v2h5l-1 8h-2v-6l-2-1-1 7h-3l-1-3-1 3-7 1-2-4-1 3h-3v-6l-3 6h-2l-2-7-2 7h-1l1-11h5l1 6 3-6 5-1-3-1-1-1v-6l-2-1-1 7-3-1z" fill="#E1DFDF"/>
<path transform="translate(482,260)" d="m0 0h17v24l3 1-2 1h-18z" fill="#B0ACAC"/>
<path transform="translate(492,403)" d="m0 0h17v23h-17z" fill="#B2AEAE"/>
<path transform="translate(308,403)" d="m0 0h17v23h-17z" fill="#B2AEAE"/>
<path transform="translate(523,451)" d="m0 0h2v3h4l1 4 2-4 2 1-6 12 1 4-1 5-4-1 2-3-3 3v2l-3-1-1-2-1 2h-2v-6h-2l-2 6-2-1 1-12 1-9h2l1 5 3-5h5z" fill="#BBBABA"/>
<path transform="translate(112,156)" d="m0 0h8l3 3v10l-3 5-2 3 2 1v3h-5v-4h-6l-3-3-1-7 3-8z"/>
<path transform="translate(645,8)" d="m0 0h10l5 5-1 9-4 5-5 2h-9l2-14z"/>
<path transform="translate(767,8)" d="m0 0h8l3 3v10l-4 6-3 2h-7l-3-3-1-7 3-8z"/>
<path transform="translate(255,431)" d="m0 0h9 3 7l3 3v6l-3 4-9 1h-12l1-12z" fill="#E6E5E5"/>
<path transform="translate(1040,279)" d="m0 0h5l3 3h2l3-3h5l2 2v8l-4 4h-5l-4-3-4 3-7-1-1-7 3-5z" fill="#E8E7E7"/>
<path transform="translate(1098,279)" d="m0 0h9 3 8l2 2-1 5h-2l1 7h-3l-1-6h-3l-1 6-4-1-1 1h-10l2-13z" fill="#E6E4E4"/>
<path transform="translate(675,8)" d="m0 0h13l2 2v7l-4 2 2 10h-5l-2-9h-4l-1 9h-5l3-19z"/>
<path transform="translate(433,478)" d="m0 0 5 2v3l-3-1v-2l-3 1-1 7 6-1-4 4 3 2-2 11h-3l1-8-4 8h-2l-2-6-2 6h-1l1-11 1-2h-2l2-11 3-1v5l4-5z" fill="#9A9999"/>
<path transform="translate(746,893)" d="m0 0h14l3 4-3 1-5-2v3l6 2 1 5-3 3h-8l-3-3-2 3-3-1z" fill="#E9E8E8"/>
<path transform="translate(784,8)" d="m0 0h5l4 9v2h2l1-11 4 1-4 20h-4l-5-12h-1l-2 12h-4l3-19z"/>
<path transform="translate(64,156)" d="m0 0h6l2 10 1 11h-5v-5h-8l-2 5h-3l2-6z" fill="#181818"/>
<path transform="translate(150,156)" d="m0 0h14v3l-10 1-1 4h8l-1 4h-8l-1 5h10v4h-15l2-15z"/>
<path transform="translate(696,8)" d="m0 0h14v3h-10l-1 5h8l-1 4h-8v5h9v4h-15l3-19z"/>
<path transform="translate(443,600)" d="m0 0h18l-1 3-4-1-1 2 5 1 1 4-3 3h-5l-3-2v2h-9z" fill="#DEDDDD"/>
<path transform="translate(129,156)" d="m0 0h4l-1 16 6 1 3-17h4l-2 15-2 4-4 2h-8l-3-3 1-11z"/>
<path transform="translate(1067,279)" d="m0 0h5l5 4 1-4h2l-1 11-1 3h-3l-1-3-4 3-7-1-1-7 3-5z" fill="#E9E8E8"/>
<path transform="translate(537,465)" d="m0 0h4l2 5 3-5h4l-1 12 1 4-2 10h-3l-1-2-3 1 1-13-2-1v-8h-2l-1 8h-2zm9 2-3 9 3-1 1-8z" fill="#9A9898"/>
<path transform="translate(1114,308)" d="m0 0h5l3 3 2-3h3l-2 13-3 1-1-3-4 3-7-1-1-7 3-5z" fill="#EBEAEA"/>
<path transform="translate(543,577)" d="m0 0 5 1v2h-5l5 4-1 4-3 2-7-1h-8l1-11h9 2z" fill="#DDDCDC"/>
<path transform="translate(691,426)" d="m0 0 6 1 2 3v4h-4l-2-3h-4l-2 4v8h5l2-3 4 1-3 5-4 2-7-1-3-3v-9l4-6 2-2z"/>
<path transform="translate(83,156)" d="m0 0h8l3 3v4l-4 1-2-4-4 1-2 3v8l3 1 3-3h5l-3 5-3 2h-7l-4-4v-9l4-6z"/>
<path transform="translate(1292,271)" d="m0 0h9l2 1v5l-2 2 1 1v5l-4 2h-9l2-15z" fill="#3A3A3A"/>
<path transform="translate(738,8)" d="m0 0h9l2 2v5l-4 1-2-4-4 1-2 4v7l3 1 4-3h4l-2 4-4 3h-7l-4-5v-7l4-7z"/>
<path transform="translate(718,8)" d="m0 0h9l2 2v5l-4 1-2-4-4 1-2 4v7l3 1 4-3h4l-2 4-4 3h-7l-4-5v-7l4-7z"/>
<path transform="translate(44,156)" d="m0 0h9l3 5v2l-5 1-1-4-5 1-2 5v7l5-1 2-2h4l-2 5-4 2h-6l-4-3-1-7 3-7z"/>
<path transform="translate(637,620)" d="m0 0h7l4 3v7l-4 5-3 1h-7l2-15z"/>
<path transform="translate(14,207)" d="m0 0h7l4 3v7l-4 5-3 1h-7l2-15z"/>
<path transform="translate(499,578)" d="m0 0h13l2 3v3h2v-6h2l-1 9-1 2-3-1-2-5-2 6h-12l1-10z" fill="#DDDBDB"/>
<path transform="translate(690,473)" d="m0 0h11l1 4-1 2h-2l2 3-1 4-2 2h-10l1-12z" fill="#1E1E1E"/>
<path transform="translate(1575,397)" d="m0 0h10l2 2-1 4v3l-1 5-1 1h-11l1-11z" fill="#393939"/>
<path transform="translate(1528,194)" d="m0 0h9l2 2v8l-5 5h-9l2-13z"/>
<path transform="translate(1542,165)" d="m0 0h7l2 3-1 8-3 4-6 1-3-2-1-6 3-6z"/>
<path transform="translate(1280,271)" d="m0 0h5l2 2v9l-5 5-7-1-1-2 1-9z"/>
<path transform="translate(567,142)" d="m0 0h5l2 2v9l-5 5-7-1-1-2 1-9z"/>
<path transform="translate(60,459)" d="m0 0h6l2 3-1 9-5 4-6-1-1-2v-8z"/>
<path transform="translate(499,142)" d="m0 0h5l3 4-1 7-5 5h-5l-3-5 2-8z"/>
<path transform="translate(1244,352)" d="m0 0h9l2 2v7l-2 4-4 2h-8l2-13z"/>
<path transform="translate(493,171)" d="m0 0h6l2 2v9l-3 4-6 1-4-4 1-8z"/>
<path transform="translate(1611,165)" d="m0 0h6l2 2v9l-3 4-6 1-4-4 1-8z"/>
<path transform="translate(570,509)" d="m0 0h2v2h3l-1 7h3l1-7h2l-1 9-9 1-2 2h-8l2-11z" fill="#DCDADA"/>
<path transform="translate(1621,194)" d="m0 0h7l2 2v7l-4 6h-7l-2-2v-8z"/>
<path transform="translate(443,459)" d="m0 0 4 5-4 4-1 8h2v2l3 1h-6l-1 8-9 2-1-1 1-7 4-1 3 3-1-3-2-2v-2h3l1-9 1-2-2-1z" fill="#E6E5E5"/>
<path transform="translate(1554,397)" d="m0 0h6l1 7 3-4 2-3h5l-1 10-1 5h-3v-9l-5 9-3-1-1-8-3 9h-2l1-10z"/>
<path transform="translate(652,789)" d="m0 0h5l2 8 4-8h6l-2 13-1 2h-3l1-10-5 10h-3l-2-10-2 10-3-1 2-12z"/>
<path transform="translate(506,171)" d="m0 0h5l2 8 4-8h5l-1 11-1 4h-3l1-11-5 11h-3l-1-3v-8h-2l-1 11h-3l2-14z"/>
<path transform="translate(96,459)" d="m0 0h6v9h2l3-9h6l-2 14-4 1 1-10-5 10h-3l-1-7-1-1-2 8h-2l1-11z"/>
<path transform="translate(1526,435)" d="m0 0h5l2 7 4-7h5l-1 11-1 4h-3v-9l-5 9h-2l-1-4v-8h-2l-1 12h-3l2-14z" fill="#010101"/>
<path transform="translate(650,37)" d="m0 0h6v9h2l3-9h6l-2 14-4 1 1-10-5 10h-3l-1-7-1-1-2 8h-2l1-11z"/>
<path transform="translate(1307,271)" d="m0 0h9l3 2-1 5-2 3 1 6h-4l-2-6-2-1-1 7h-3l1-12z" fill="#242424"/>
<path transform="translate(1337,271)" d="m0 0h9l2 1v6l-3 1 1 8h-3l-2-6h-2l-2 6h-3l2-15z"/>
<path transform="translate(488,600)" d="m0 0h7l1 3h2v-3l3 1-2 11h-3l-1-3-4 3-5-1-1-1v-6z" fill="#E6E5E5"/>
<path transform="translate(729,427)" d="m0 0h15l-1 3-9 1-2 5h8v3l-8 1-2 7h-4l1-11z"/>
<path transform="translate(41,459)" d="m0 0h10l2 2-1 5-1 1v7h-4l-1-6h-3l-1 6h-3l1-10z" fill="#272626"/>
<path transform="translate(777,923)" d="m0 0h10l1 1v5l-2 2v7l-4-1-1-4-3-1-1 6h-3l2-14z"/>
<path transform="translate(697,923)" d="m0 0h10l1 1v5l-2 2v7l-4-1-1-4-3-1-1 6h-3l2-14z"/>
<path transform="translate(767,753)" d="m0 0h11l1 5-3 3 1 7h-4l-1-6-3 1-1 5h-3l1-12z" fill="#282828"/>
<path transform="translate(683,753)" d="m0 0h11l1 5-3 3 1 7h-4l-1-6-3 1-1 5h-3l1-12z" fill="#282828"/>
<path transform="translate(715,574)" d="m0 0h10l2 2-1 5-3 1 2 7h-4l-1-6-3 1-1 5h-3l1-11z" fill="#272727"/>
<path transform="translate(53,433)" d="m0 0h10l1 1v5l-2 2v7l-4-1-1-4-3-1-1 6h-3l2-14z"/>
<path transform="translate(1243,325)" d="m0 0h10l1 1v5l-2 2v7l-4-1v-5h-4l-1 6h-3l2-14z" fill="#282828"/>
<path transform="translate(912,286)" d="m0 0h9l2 1-1 7h-2l1 7-4-1-1-4-3-1-1 6h-3l2-14z"/>
<path transform="translate(857,286)" d="m0 0h10l2 2-1 5-3 1 2 7h-4l-1-6-3 1-1 5h-3l1-11z" fill="#292828"/>
<path transform="translate(734,39)" d="m0 0h2v2h-2v5l-3 2h-5v2h6l2 1-1 4-5 2-6-1v-3l2-6 1-5 1-1 7-1z" fill="#323232"/>
<path transform="translate(349,483)" d="m0 0h7l1 2 4 1-1 9h-3v-3l-4 3h-5l-2-2 1-7z" fill="#B5B5B5"/>
<path transform="translate(50,210)" d="m0 0 3 1-2 2-1 4-2 1h-6v2l8 1-1 5-2 1h-8l-1-4 2-7 2-4 7-1z" fill="#2B2B2B"/>
<path transform="translate(681,923)" d="m0 0h10l1 1v6l-2 1v7h-3l-1-6h-4v5l-4 1 2-13z"/>
<path transform="translate(1592,466)" d="m0 0 3 1h-2v5l-3 2h-5v2l8 1-1 5-3 1h-7l-2-1 2-7 1-2 1-5 7-1z" fill="#2B2B2B"/>
<path transform="translate(137,433)" d="m0 0h10l1 1v6l-2 1v7h-3l-1-6h-4v5l-4 1 2-13z"/>
<path transform="translate(690,66)" d="m0 0h10l1 1v6l-2 1v7h-3l-1-6h-4v5l-4 1 2-13z"/>
<path transform="translate(399,290)" d="m0 0h5l2 3v6l-5 5h-5l-2-2v-7z" fill="#030303"/>
<path transform="translate(599,288)" d="m0 0h5l2 3v6l-5 5h-5l-2-2v-7z" fill="#030303"/>
<path transform="translate(267,431)" d="m0 0h7l3 3v6l-3 4-9 1 1-10z"/>
<path transform="translate(480,345)" d="m0 0h7l3 3-1 7-3 3-2 1h-6l1-11z"/>
<path transform="translate(332,290)" d="m0 0 9 1 1 2v6l-5 5h-7l1-10z"/>
<path transform="translate(268,290)" d="m0 0 9 1 1 2v6l-5 5h-7l1-10z"/>
<path transform="translate(532,288)" d="m0 0 9 1 1 2v6l-5 5h-7l1-10z"/>
<path transform="translate(468,288)" d="m0 0 9 1 1 2v6l-5 5h-7l1-10z"/>
<path transform="translate(514,482)" d="m0 0h7l-1 9v4l-3 1-2-2h-2v7l3 1-1-4h4l-1 6h-7l-2-3 1-6 3-3-1-4z" fill="#666565"/>
<path transform="translate(342,431)" d="m0 0h6l2 3-1 7-4 4h-5l-2-2v-7z"/>
<path transform="translate(496,345)" d="m0 0h6l2 3-1 7-4 4h-5l-2-2v-7z"/>
<path transform="translate(755,956)" d="m0 0 2 1-2 6-2 1h-6v3h7l1 4-2 2h-10v-4l1-4h2l-1-5 2-2 7-1z" fill="#252525"/>
<path transform="translate(266,371)" d="m0 0h9l1 4-2 2 1 5-2 2h-10l2-12z" fill="#3E3E3E"/>
<path transform="translate(282,345)" d="m0 0 6 1 1 6-3 6-7 1-2-2v-7z"/>
<path transform="translate(230,290)" d="m0 0 6 1 1 6-3 6-7 1-2-2v-7z"/>
<path transform="translate(430,288)" d="m0 0 6 1 1 6-3 6-7 1-2-2v-7z"/>
<path transform="translate(1053,279)" d="m0 0h5l2 2v8l-4 4h-5l-2-2v-8z"/>
<path transform="translate(1030,334)" d="m0 0h5v8h2l1-5 2-3h5l-2 13-3 1v-8l-4 8h-2l-2-10-2 10h-2l1-12z"/>
<path transform="translate(1026,308)" d="m0 0h5v8h2l1-5 2-3h5l-2 13-3 1v-8l-4 8h-2l-2-10-2 10h-2l1-12z"/>
<path transform="translate(244,290)" d="m0 0 5 1 1 1v8l-4 4h-5l-2-2v-7z"/>
<path transform="translate(444,288)" d="m0 0 5 1 1 1v8l-4 4h-5l-2-2v-7z"/>
<path transform="translate(1088,360)" d="m0 0h4l2 7 4-7h4l-1 11-1 3-3-1 1-8-5 9h-2l-1-8-3 8h-2l2-13z"/>
<path transform="translate(1e3 360)" d="m0 0h4l2 7 4-7h4l-1 11-1 3-3-1 1-8-5 9h-2l-1-8-3 8h-2l2-13z"/>
<path transform="translate(842,353)" d="m0 0h4l2 7 4-7h4l-1 11-1 3-3-1 1-8-5 9h-2l-1-8-3 8h-2l2-13z"/>
<path transform="translate(358,290)" d="m0 0h5l1 7 4-7h5l-2 14h-3l1-10-5 10h-2l-2-9-2 9h-2l1-10z"/>
<path transform="translate(558,288)" d="m0 0h5l1 7 4-7h5l-2 14h-3l1-10-5 10h-2l-2-9-2 9h-2l1-10z"/>
<path transform="translate(736,620)" d="m0 0h9l2 1v6l-3 3h-6l-1 6h-3l1-10z" fill="#2A2A2A"/>
<path transform="translate(525,600)" d="m0 0h2v2l3-2h7l-1 3-4-1-1 2 5 1 1 4-3 3h-5l-2-4h-2v4h-2l1-11z" fill="#E3E1E1"/>
<path transform="translate(834,319)" d="m0 0h5l1 6 3-4 1-2h5l-2 13h-3v-7l-4 7h-2l-2-8-2 8h-2l1-9z"/>
<path transform="translate(27,459)" d="m0 0h9l2 2-1 6-1 1-7 1-1 5-4-1 2-12z" fill="#2F2F2F"/>
<path transform="translate(496,314)" d="m0 0h5l1 7 4-7h5l-2 13h-3v-8l-4 8-3-1-1-8-2 9h-2l1-11z"/>
<path transform="translate(68,207)" d="m0 0h3l1 4 4 1 1 1-1 8-3 2-5-1-2 1 1-11z"/>
<path transform="translate(702,620)" d="m0 0 3 1-3 15h-8l-1-1v-7l3-4 5 1z"/>
<path transform="translate(1346,352)" d="m0 0h10l1 1-1 7-8 2-1 5h-3l1-12z" fill="#2F2E2E"/>
<path transform="translate(1339,299)" d="m0 0h10l1 1-1 7-8 2-1 5h-3l1-12z" fill="#2F2E2E"/>
<path transform="translate(1356,271)" d="m0 0h4l2 16h-4l-1-3-5 1-1 2-3-1z" fill="#181818"/>
<path transform="translate(511,142)" d="m0 0h4l3 7h1l2-7h2l-2 14-1 2h-3l-3-7v-3h-2l-1 10h-2l1-12z"/>
<path transform="translate(745,37)" d="m0 0h3l-1 10-1 5-8 1-2-2 1-7 2-3 6 1z"/>
<path transform="translate(786,753)" d="m0 0 5 1 1 14h-3v-3l-6 1-1 2h-3l2-6z" fill="#1A1A1A"/>
<path transform="translate(704,427)" d="m0 0h4l-1 10-1 7h8l-1 3h-13l3-18z"/>
<path transform="translate(1272,352)" d="m0 0h3l-1 9-1 6h-9l-1-6 3-5h6z"/>
<path transform="translate(265,345)" d="m0 0h8l2 1v5l-2 3 1 5h-4l-1-5h-2l-1 5h-3l1-10z" fill="#262626"/>
<path transform="translate(1271,329)" d="m0 0h9l-2 14-3 1-1-4-5-1v-7z"/>
<path transform="translate(254,290)" d="m0 0h8l2 1v5l-2 3 1 5h-4l-1-5h-2l-1 5h-3l1-10z" fill="#262626"/>
<path transform="translate(454,288)" d="m0 0h8l2 1v5l-2 3 1 5h-4l-1-5h-2l-1 5h-3l1-10z" fill="#262626"/>
<path transform="translate(1110,279)" d="m0 0h8l2 2-1 5h-2l1 7h-3l-1-6h-3l-1 6h-3l2-13z" fill="#252525"/>
<path transform="translate(562,454)" d="m0 0 6 1 1 2 1-3h5v2l-2 1-4 9-5-1-5-4 1-6z" fill="#8D8C8C"/>
<path transform="translate(765,923)" d="m0 0h5l2 15h-4v-3l-6 1-1 2-3-1z" fill="#1B1B1B"/>
<path transform="translate(722,789)" d="m0 0h5l1 7v8h-3v-3h-6l-1 3-3-1z" fill="#1B1B1B"/>
<path transform="translate(734,574)" d="m0 0h5l2 15h-4v-3l-6 1-1 2-3-1z" fill="#1B1B1B"/>
<path transform="translate(12,433)" d="m0 0h4l3 7 2-7 3 1-3 14-4-1-3-8-2 9-3-1 2-12z"/>
<path transform="translate(64,404)" d="m0 0 4 1 2 7h2l1-8h2l-1 11-1 4h-4l-3-8-3 8h-2l2-14z"/>
<path transform="translate(1314,299)" d="m0 0h2l-1 11-1 4h-9v-8l2-3h6z"/>
<path transform="translate(900,286)" d="m0 0h5l1 7v8h-3v-3h-6l-1 3-3-1z" fill="#1B1B1B"/>
<path transform="translate(686,954)" d="m0 0h7l2 2v3h-3l-1-2-4 1-1 2v6l4-1-2-1v-3h6v6l-2 2h-9l-1-1v-9z"/>
<path transform="translate(690,894)" d="m0 0h4l2 5v3h2l1-8h2l-1 10-1 5-4-1-3-7-3 8h-2l2-14z"/>
<path transform="translate(642,753)" d="m0 0 5 1 2 5h1l1-6h3l-2 13-1 2h-3l-3-7v-3h-2l-1 10h-2l1-12z"/>
<path transform="translate(1525,463)" d="m0 0h6l2 2v3h-3v-2h-5l-1 9h4l1-2-3-1 1-1h6l-1 7-5 1h-5l-2-2v-8z"/>
<path transform="translate(67,488)" d="m0 0h4l2 11v4h-3l-1-2-6-1-1 3h-2l2-6z" fill="#1C1B1B"/>
<path transform="translate(156,433)" d="m0 0h4l2 11v4h-3l-1-2-6-1-1 3h-2l2-6z" fill="#1C1B1B"/>
<path transform="translate(542,171)" d="m0 0h4l3 7 2-7 3 1-3 14-4-1-3-8-2 9-3-1z"/>
<path transform="translate(540,142)" d="m0 0h11v3h-8v4h5v2h-6v4h7v3h-11l1-10z"/>
<path transform="translate(476,314)" d="m0 0h9l1 5-2 2v6h-3l-1-5h-3l-1 5-3-1 2-11z" fill="#292929"/>
<path transform="translate(950,286)" d="m0 0h7l2 3h-4-3v2l5 2 1 5-3 3-6 1-4-4 4-1v2h5l-1-3-5-2-1-4z"/>
<path transform="translate(1323,271)" d="m0 0h11v3h-8v3l5 1v2h-6l-1 4h8l-1 3h-11z"/>
<path transform="translate(1555,165)" d="m0 0h4l3 7 3-7h2l-2 14-4 1-4-9-2 9h-2l1-11z"/>
<path transform="translate(672,37)" d="m0 0h7l2 3h-4-3v2l5 2 1 5-3 3-6 1-4-4 4-1v2h5l-1-3-5-2-1-4z"/>
<path transform="translate(721,894)" d="m0 0h4l2 15h-4v-3h-6l-1 3h-2l2-6z" fill="#1A1A1A"/>
<path transform="translate(95,404)" d="m0 0h4l2 15h-4v-3h-6l-1 3h-2l2-6z" fill="#1C1C1C"/>
<path transform="translate(527,314)" d="m0 0h9l1 1v5l-3 1 1 6h-3l-1-4-3-1v5h-3l1-9z" fill="#282828"/>
<path transform="translate(938,286)" d="m0 0h4l2 15h-4v-3h-6l-1 3h-2l2-6z" fill="#1C1C1C"/>
<path transform="translate(1577,194)" d="m0 0h4l2 9v6h-3v-3l-6 1-1 2-3-1z" fill="#1B1A1A"/>
<path transform="translate(561,171)" d="m0 0h4l2 15h-4v-3h-6l-1 3h-2l2-6z" fill="#1C1C1C"/>
<path transform="translate(529,142)" d="m0 0 7 1v3l-6-1-1 2 6 2 1 5-4 4h-6l-3-2v-2l3-1 4 2h2v-3l-7-2 1-6z"/>
<path transform="translate(816,286)" d="m0 0h7v4l-6-1v2l6 2v6l-5 3-6-1v-4l7 1 1-2-7-2 1-7z"/>
<path transform="translate(1369,271)" d="m0 0h6l2 4-8-1v3l6 1 1 1v5l-4 3h-6l-2-4 3-1v2l5-1-2-2-4-2 1-7z"/>
<path transform="translate(466,652)" d="m0 0h7l2 3-1 6-4 3h-6l1-10z"/>
<path transform="translate(108,404)" d="m0 0h7l2 5-4 1-1-3-3 1-1 2v6l8-2-3 5-6 1-4-4 1-8z"/>
<path transform="translate(113,211)" d="m0 0 6 1 1 6-4 5h-5l-2-2v-6z"/>
<path transform="translate(754,894)" d="m0 0h7l2 3-3 1-5-2v3l6 2 1 5-3 3h-8l-2-4h4v2h5v-4l-6-1-1-4z"/>
<path transform="translate(703,752)" d="m0 0 6 1 1 5-4-1v-2l-4 1-1 2v7h4v-2l4 1-4 4h-6l-3-3v-6l4-6z"/>
<path transform="translate(456,526)" d="m0 0h7l2 2-1 7-3 3h-7z"/>
<path transform="translate(437,508)" d="m0 0h7l2 2-1 7-3 3h-7z"/>
<path transform="translate(1565,434)" d="m0 0 6 1 1 5-4-1v-2l-4 1-1 2v7h4v-2l4 1-4 4h-6l-3-3v-6l4-6z"/>
<path transform="translate(174,211)" d="m0 0 6 1 1 1-1 7-3 3h-5l-2-2v-6z"/>
<path transform="translate(57,211)" d="m0 0 6 1 1 1-1 7-3 3h-5l-2-2v-6z"/>
<path transform="translate(526,171)" d="m0 0 4 1-1 11h4l3-12h2l-1 11-5 5-7-1-1-5z"/>
<path transform="translate(484,142)" d="m0 0h6l2 2v4h-3l-1-2h-4l-1 8 2 1 3-2 3 1-4 4h-6l-3-4 2-9z"/>
<path transform="translate(733,894)" d="m0 0h8l1 3-3 1-4-1-1 2 7 2-1 7-2 1h-8l-1-4 8 1v-2l-6-2v-6z"/>
<path transform="translate(472,451)" d="m0 0h7l2 2-1 7-4 3h-6z"/>
<path transform="translate(1549,434)" d="m0 0 6 1 1 3h-7l-1 2 6 1 1 1-1 7-2 1h-7l-2-4 8 1v-2l-6-3v-5z"/>
<path transform="translate(428,433)" d="m0 0h7l2 2-1 7-4 3h-6z"/>
<path transform="translate(642,958)" d="m0 0h6l1 1v7l-3 3h-7l-1-6 2-4z"/>
<path transform="translate(114,492)" d="m0 0h6l2 2-1 7-2 2h-7l-1-7z"/>
<path transform="translate(727,477)" d="m0 0h7l1 1v6l-3 4h-6l-2-2 1-7z"/>
<path transform="translate(706,477)" d="m0 0h7l1 1v6l-3 4h-6l-2-2 1-7z"/>
<path transform="translate(83,433)" d="m0 0h3v12l4-1 2-11h3l-1 9-2 5-1 1h-9l-1-7z"/>
<path transform="translate(1389,356)" d="m0 0h7l1 6-2 4-2 1h-6l-1-1v-7z"/>
<path transform="translate(1110,336)" d="m0 0 2 1-3 6-5 1v1l6 1v4l-2 1h-9l1-6 2-6z" fill="#292929"/>
<path transform="translate(937,321)" d="m0 0 3 1h-2l-1 5-6 2 7 3-1 3-2 1h-8l1-7 2-6 5-1 2 1z" fill="#3C3B3B"/>
<path transform="translate(1382,303)" d="m0 0h7l1 6-2 4-2 1h-6l-1-1v-7z"/>
<path transform="translate(734,923)" d="m0 0 4 1-1 11 4-1 3-11h2l-1 11-3 4h-8l-2-2z"/>
<path transform="translate(665,923)" d="m0 0 4 1-1 11 4-1 3-11h2l-1 11-3 4h-8l-2-2z"/>
<path transform="translate(770,793)" d="m0 0 7 1v7l-4 4-5-1-1-1v-7z"/>
<path transform="translate(437,652)" d="m0 0h6l1 6-3 5-1 1h-5l-2-5 2-6z"/>
<path transform="translate(445,624)" d="m0 0h6l1 1v7l-4 4-5-1-1-1v-6z"/>
<path transform="translate(478,577)" d="m0 0 5 1v8l-2 3-5 1-3-3 1-7z"/>
<path transform="translate(451,508)" d="m0 0h5l2 2-1 7-3 3h-5l-2-5 2-5z"/>
<path transform="translate(255,483)" d="m0 0h6l1 1v7l-4 4-5-1-1-1v-6z"/>
<path transform="translate(1597,439)" d="m0 0h7l1 7-4 4h-5l-2-2 1-7z"/>
<path transform="translate(121,433)" d="m0 0 4 1-1 11 4-1 3-11h2l-1 11-3 4h-8l-2-2z"/>
<path transform="translate(1262,303)" d="m0 0h7l1 7-4 4h-5l-2-2 1-7z"/>
<path transform="translate(1543,194)" d="m0 0 4 1-1 11 4-1 3-11h2l-1 11-3 4h-8l-2-2z"/>
<path transform="translate(1574,165)" d="m0 0h6l2 2v3l-3 1-2-3-3 1-1 2v6l8-2-2 4-3 2-6-1-2-4 1-6z"/>
<path transform="translate(1528,165)" d="m0 0h6l2 2v3l-3 1-2-3-3 1-1 2v6l8-2-2 4-3 2-6-1-2-4 1-6z"/>
<path transform="translate(114,159)" d="m0 0 4 1 1 1-1 9-4 4-4-2v-7l3-5z" fill="#F1F0F0"/>
<path transform="translate(688,37)" d="m0 0h6l2 2v3l-3 1-2-3-3 1-1 2v6l8-2-2 4-3 2-6-1-2-4 1-6z"/>
<path transform="translate(769,11)" d="m0 0 4 1 1 1-1 9-4 4-4-2v-7l3-5z" fill="#F0EFEF"/>
<path transform="translate(669,753)" d="m0 0h11v2h-8v4h5v2h-6v4h7v3h-11l1-10z"/>
<path transform="translate(134,207)" d="m0 0h5l2 2v4h-3v-3l-5 2-1 8 5-2h3l-2 4-7 1-3-3v-7l4-5z"/>
<path transform="translate(478,171)" d="m0 0h7l1 5-3 1-1-3h-4l-1 10 4-1 1-2 4 1-3 4-6 1-4-3v-7l3-5z"/>
<path transform="translate(631,473)" d="m0 0 4 1-1 11 4-1 2-10 3-1-1 10-2 4-2 1h-7l-2-2z"/>
<path transform="translate(493,433)" d="m0 0h6l1 1v7l-4 4-5-1-1-6z"/>
<path transform="translate(120,404)" d="m0 0h11v2l-7 1-1 3h5v3h-6v4h7v2h-11l1-10z"/>
<path transform="translate(828,286)" d="m0 0h11v2l-7 1-1 3h5v3h-6v4h7v2h-11l1-10z"/>
<path transform="translate(751,753)" d="m0 0h4l-2 12h6l2-12 3 1-3 12-2 2h-8l-1-1v-9z"/>
<path transform="translate(713,753)" d="m0 0h4l-2 12h6l2-12 3 1-3 12-2 2h-8l-1-1v-9z"/>
<path transform="translate(463,578)" d="m0 0h7l2 2-1 6-3 3h-7l1-9z"/>
<path transform="translate(441,479)" d="m0 0h7l2 2-1 6-3 3h-7l1-9z"/>
<path transform="translate(748,477)" d="m0 0h7l1 1v7l-3 3h-6l-1-1v-7z"/>
<path transform="translate(252,345)" d="m0 0h7l3 2-1 5-3 2h-5v5h-3l1-10z" fill="#2E2E2E"/>
<path transform="translate(1327,324)" d="m0 0 6 1 1 5h-3l-1-2h-4l-2 9 5-1 4-1-2 4-2 1h-6l-3-4 2-9z"/>
<path transform="translate(1089,312)" d="m0 0h3v2l3-2h6l1 2-6-1v2l5 1-1 5-1 1h-5l-4-3v3h-2z" fill="#747474"/>
<path transform="translate(722,923)" d="m0 0h7l2 5h-4l-1-2h-3l-1 2v7l8-2-2 4-2 1h-7l-2-3 1-8z"/>
<path transform="translate(653,923)" d="m0 0h7l2 5h-4l-1-2h-3l-1 2v7l8-2-2 4-2 1h-7l-2-3 1-8z"/>
<path transform="translate(50,404)" d="m0 0h11v2l-7 1-1 2 5 1v3h-6l-1 4h8l-1 2h-10l1-11z"/>
<path transform="translate(845,286)" d="m0 0h6l2 2v3l-3 1v-3l-5 1-1 8h4l1-2h3l-1 4-4 2-6-1-1-2v-8z"/>
<path transform="translate(1586,165)" d="m0 0h10v2l-7 1-1 3h6l-1 3h-6v4h7v2h-11l2-14z"/>
<path transform="translate(706,70)" d="m0 0h6l1 1v7l-3 3h-6l-1-1v-7z"/>
<path transform="translate(423,492)" d="m0 0h4l1 6 3-6h5l-2 12h-3l1-8-4 8h-2l-2-6-2 6h-1l1-11z"/>
<path transform="translate(873,286)" d="m0 0h11l-1 2h-7l-1 4h6v3h-7v4h7v2h-11l2-13z"/>
<path transform="translate(712,37)" d="m0 0h11l-1 2h-7l-1 4h6v3h-7v4h7v2h-11l2-13z"/>
<path transform="translate(521,529)" d="m0 0 3 1 8-1 1 5-1 4h-7l-2-3-1 3h-2z" fill="#212121"/>
<path transform="translate(265,512)" d="m0 0h4l2 5 3-5h4l-1 9-1 3h-2v-7l-4 7-2-1v-8h-2l-1 9h-2z"/>
<path transform="translate(217,512)" d="m0 0h4l2 5 3-5h4l-1 9-1 3h-2v-7l-4 7-2-1v-8h-2l-1 9h-2z"/>
<path transform="translate(284,483)" d="m0 0h4l2 5 3-5h4l-1 9-1 3h-2v-7l-4 7-2-1v-8h-2l-1 9h-2z"/>
<path transform="translate(648,11)" d="m0 0 6 1 1 1v7l-4 5h-5z" fill="#F1F1F1"/>
<path transform="translate(703,574)" d="m0 0h7l1 5h-3l-1-2h-3l-2 5 1 4h3l1-2 4 1-4 4h-7l-2-2v-7l3-5z"/>
<path transform="translate(71,433)" d="m0 0h7l1 5h-3l-1-2h-3l-2 5 1 4h3l1-2 4 1-4 4h-7l-2-2v-7l3-5z"/>
<path transform="translate(489,526)" d="m0 0h4l2 6 3-6h4l-1 10-1 2h-2v-7l-4 7-2-1v-8h-2l-1 9h-2z"/>
<path transform="translate(549,433)" d="m0 0h5l1 6 3-6h4l-1 11-3 1v-7l-4 7-2-3-1-5-2 8-2-1z"/>
<path transform="translate(1561,194)" d="m0 0h8l1 5h-3l-1-2-4 1-1 8 8-2-2 4-1 1h-7l-2-2v-8z"/>
<path transform="translate(665,8)" d="m0 0h5l-3 19-1 2h-4l1-10z"/>
<path transform="translate(39,433)" d="m0 0h11v2h-8v4h5v2h-6v4l7 1-1 2h-10l1-11z"/>
<path transform="translate(311,431)" d="m0 0 4 1 1 13h-3v-3l-5 1-1 2-3-1z" fill="#1B1A1A"/>
<path transform="translate(886,319)" d="m0 0h3l-2 13-7 1-2-2 1-7 5-2 2 1z" fill="#565656"/>
<path transform="translate(1514,194)" d="m0 0h11v2h-8v4h5v2h-6v4l7 1-1 2h-10l1-11z"/>
<path transform="translate(296,290)" d="m0 0h3l2 9v5h-3v-3l-5 1-1 2-3-1z" fill="#181818"/>
<path transform="translate(496,288)" d="m0 0h3l2 9v5h-3v-3l-5 1-1 2-3-1z" fill="#181818"/>
<path transform="translate(676,894)" d="m0 0h11l-1 2-7 1-1 3h6v2l-6 1v3l6 1v2h-11l2-13z"/>
<path transform="translate(1613,467)" d="m0 0h5l1 1v7l-1 4-4-1-5 1-1-4 3-3h5v-3l-5 2v-3z" fill="#302F2F"/>
<path transform="translate(354,431)" d="m0 0h3l3 7 2-7h2l-2 14h-3l-3-7h-1l-2 7h-2l2-13z"/>
<path transform="translate(463,314)" d="m0 0h8l2 4-3 4h-6l-1 5h-2l1-11z" fill="#2F2F2F"/>
<path transform="translate(1084,279)" d="m0 0 4 1 2 5 2-6h2l-1 10-1 4h-3l-3-7-2 7h-2l1-11z"/>
<path transform="translate(31,211)" d="m0 0h5l1 1v7l-1 4-4-1-5 1-1-4 3-3h5v-3l-5 2v-3z" fill="#302F2F"/>
<path transform="translate(99,156)" d="m0 0h4l-1 11-2 10h-4l1-12z"/>
<path transform="translate(754,8)" d="m0 0h4l-1 11-2 10h-4l1-12z"/>
<path transform="translate(1552,467)" d="m0 0h5l2 2-1 9-5 1h-5v-5l3-2h5l-1-2-3-1-1 2-2-2z" fill="#202020"/>
<path transform="translate(1067,334)" d="m0 0h2l-1 10-1 4h-7l-1-1v-6l2-3 5-1z" fill="#565656"/>
<path transform="translate(557,479)" d="m0 0h5l1 6 3-6h4l-1 11h-3v-6l-3 6h-2l-2-7-2 7h-1z"/>
<path transform="translate(537,465)" d="m0 0h4l2 5 3-5h4l-1 9-1 2h-2v-7l-3 7h-3v-8h-2l-1 8h-2z"/>
<path transform="translate(322,290)" d="m0 0h4l1 14h-3v-3l-5 1-1 2h-2l2-6z" fill="#1F1F1F"/>
<path transform="translate(522,288)" d="m0 0h4l1 14h-3v-3l-5 1-1 2h-2l2-6z" fill="#1F1F1F"/>
<path transform="translate(701,793)" d="m0 0h6l1 1-1 10-9 1-1-5 3-2h5v-3l-6 1v-2z" fill="#303030"/>
<path transform="translate(423,652)" d="m0 0h8l1 5-1 1v6h-3l-1-5h-3l-1 5h-2z" fill="#252525"/>
<path transform="translate(577,433)" d="m0 0h8l1 4-1 2h-2l1 6-3-1v-4h-3l-1 5h-2l1-10z" fill="#282727"/>
<path transform="translate(532,433)" d="m0 0h8l1 4-1 2h-2l1 6-3-1v-4h-3l-1 5h-2l1-10z" fill="#282727"/>
<path transform="translate(720,427)" d="m0 0h4l-1 10-2 10h-5l3-18z"/>
<path transform="translate(1093,334)" d="m0 0h3l2 10v4h-3v-3h-6l-1 3-2-1z" fill="#1A1A1A"/>
<path transform="translate(1364,329)" d="m0 0h8l-1 11h-10v-5l5-2h3l-1-2-6 1z" fill="#202020"/>
<path transform="translate(1281,303)" d="m0 0h8l-1 11h-10v-5l5-2h3l-1-2-6 1z" fill="#202020"/>
<path transform="translate(1127,279)" d="m0 0h3l2 10v4h-3v-3h-6l-1 3-2-1z" fill="#1A1A1A"/>
<path transform="translate(749,793)" d="m0 0h6l1 5-2 6-8 1-1-5 2-2 5-1 1-2-7 1z" fill="#242424"/>
<path transform="translate(674,793)" d="m0 0h6l1 5-2 6-8 1-1-5 2-2 5-1 1-2-7 1z" fill="#242424"/>
<path transform="translate(432,624)" d="m0 0h8l1 4-2 2v6h-3v-5h-3l-1 5h-2l1-11z" fill="#2A2A2A"/>
<path transform="translate(242,483)" d="m0 0h8l1 4-2 2v6h-3v-5h-3l-1 5h-2l1-11z" fill="#2A2A2A"/>
<path transform="translate(671,477)" d="m0 0h8v7l-1 4h-9l-1-4 5-3h3v-3l-4 2-3-1z" fill="#232222"/>
<path transform="translate(118,463)" d="m0 0h6l1 5-2 6-8 1-1-5 2-2 5-1 1-2-7 1z" fill="#242424"/>
<path transform="translate(1327,356)" d="m0 0h8v7l-1 4h-9l-1-4 5-3h3v-3l-4 2-3-1z" fill="#232222"/>
<path transform="translate(1320,303)" d="m0 0h8v7l-1 4h-9l-1-4 5-3h3v-3l-4 2-3-1z" fill="#232222"/>
<path transform="translate(773,958)" d="m0 0h7l1 1-1 10h-10l1-5 6-2-1-2-5 1z" fill="#242424"/>
<path transform="translate(325,457)" d="m0 0h4l1 13h-3v-3h-5l-1 3h-2l2-6z" fill="#1E1E1E"/>
<path transform="translate(283,457)" d="m0 0 4 1 2 5 2-6h2l-2 13-4-1-3-6-2 7-2-1 2-11z"/>
<path transform="translate(404,336)" d="m0 0h5v17h-5z" fill="#B2AEAE"/>
<path transform="translate(1338,329)" d="m0 0h7l1 4-2 7h-9v-5l4-2h4l-1-2-6 1z" fill="#212020"/>
<path transform="translate(920,319)" d="m0 0h4l1 13h-3v-3l-5 2-3 1 2-6z" fill="#1A1A1A"/>
<path transform="translate(325,316)" d="m0 0h4l2 13h-3l-1-2h-4l-1 2-3-1z" fill="#1B1B1B"/>
<path transform="translate(517,314)" d="m0 0h4l1 13h-3v-3l-5 2-3 1 2-6z" fill="#1A1A1A"/>
<path transform="translate(713,958)" d="m0 0h7v9l-1 2h-9l-1-3 2-3 6-2h-3-3v-2z" fill="#232323"/>
<path transform="translate(93,492)" d="m0 0h7v9l-1 2h-9l-1-3 2-3 6-2h-3-3v-2z" fill="#232323"/>
<path transform="translate(145,463)" d="m0 0h6l1 1v8l-1 2-8 1-2-4 3-3 5-1-6-2z" fill="#232323"/>
<path transform="translate(72,459)" d="m0 0h11v3h-8v3l5 1v2h-6l-1 6h-3l1-11z"/>
<path transform="translate(1621,439)" d="m0 0h7l1 1v5h-8l1 2h6l-2 3h-6l-2-2 1-7z" fill="#1F1F1F"/>
<path transform="translate(1295,356)" d="m0 0h7l1 1v5h-8l1 2h6l-2 3h-6l-2-2 1-7z" fill="#1F1F1F"/>
<path transform="translate(1258,329)" d="m0 0h8v8l-1 3h-9l-1-4 5-3 3-2-6 1z" fill="#222"/>
<path transform="translate(283,316)" d="m0 0h4l3 6 1-6h2l-1 11-1 2h-3l-3-7-2 7h-2l1-9z"/>
<path transform="translate(725,70)" d="m0 0h7v9l-1 2h-9l-1-3 2-3 6-2h-3-3v-2z" fill="#232323"/>
<path transform="translate(787,477)" d="m0 0h6l2 2v4h-8v3l6-1v2l-2 1h-6l-1-1v-7z" fill="#1D1D1D"/>
<path transform="translate(1591,397)" d="m0 0h10v3h-8v4h6l-1 2h-6v5l-4 1 2-14z"/>
<path transform="translate(914,357)" d="m0 0h14v7l-1 3h-2v-8l-2 1-2 7h-2v-8l-2 1-2 7h-2z"/>
<path transform="translate(1403,329)" d="m0 0h6l2 2v4h-8v3l6-1v2l-2 1h-6l-1-1v-7z" fill="#1D1D1D"/>
<path transform="translate(1298,329)" d="m0 0h6l2 2v4h-8v3l6-1v2l-2 1h-6l-1-1v-7z" fill="#1D1D1D"/>
<path transform="translate(83,211)" d="m0 0 6 1 1 5h-8v4l4-2 3 1-3 3h-5l-2-2v-6z" fill="#1F1F1F"/>
<path transform="translate(753,624)" d="m0 0 5 1 1 5-7 1v2l6-1-1 3-7 1-2-3 1-6z" fill="#1F1F1F"/>
<path transform="translate(1574,467)" d="m0 0 5 1 1 5-7 1v2l6-1-1 3-7 1-2-3 1-6z" fill="#1F1F1F"/>
<path transform="translate(281,374)" d="m0 0 5 1 1 5-5 5-4-1-1-1 1-7z" fill="#696868"/>
<path transform="translate(1604,194)" d="m0 0h4l1 9 2-3 3-6 3 1-7 14h-4z"/>
<path transform="translate(735,958)" d="m0 0h5l2 2v4h-8v3l7-1-2 3h-7l-1-7z" fill="#232222"/>
<path transform="translate(569,510)" d="m0 0 2 1-3 5h-5v2h5l1 4-1 1h-8l2-11z" fill="#373737"/>
<path transform="translate(523,374)" d="m0 0 5 1 1 5-3 4h-6l-1-1 1-7z" fill="#6E6E6E"/>
<path transform="translate(550,314)" d="m0 0h4l2 13h-3l-1-2-5 1h-3z" fill="#1F1F1F"/>
<path transform="translate(774,624)" d="m0 0 5 1 1 5-7 1v3l4-2 3 1-3 3-7-1v-7z" fill="#242424"/>
<path transform="translate(678,624)" d="m0 0 5 1 1 5-7 1v3l4-2 3 1-3 3-7-1v-7z" fill="#242424"/>
<path transform="translate(377,512)" d="m0 0h2v3h6l-2 9h-7l-1-4v-5h2z" fill="#848484"/>
<path transform="translate(474,479)" d="m0 0h8l1 3-2 3v5h-3l-1-4-2-1-1 5h-2l1-10z" fill="#4A4A4A"/>
<path transform="translate(773,473)" d="m0 0h3v4h5l1 3-2 8-3-1 1-7-3-1-1 8-3 1 1-11z"/>
<path transform="translate(323,431)" d="m0 0h6l1 5-3-1v-2l-4 2-1 6h4l4-1-2 4-7 1-3-4 1-6z"/>
<path transform="translate(281,431)" d="m0 0h3l-1 11 4-1 2-10h2l-1 11-3 3h-6l-2-2 1-10z"/>
<path transform="translate(319,374)" d="m0 0 5 1v7l-4 3-4-1-1-1 1-7z" fill="#494949"/>
<path transform="translate(300,374)" d="m0 0 5 1v7l-4 3-4-1-1-1 1-7z" fill="#494949"/>
<path transform="translate(1020,364)" d="m0 0h6l1 1v6l-3 3h-5l-1-1v-7z" fill="#484848"/>
<path transform="translate(817,353)" d="m0 0h3l-1 11 4-1 2-10h2l-1 11-3 3h-6l-2-2 1-10z"/>
<path transform="translate(806,353)" d="m0 0h6l1 3h-6l-1 2 6 1 1 4-4 4-7-1v-3l7 1 1-2-6-2-1-4z"/>
<path transform="translate(314,345)" d="m0 0h2v11h3l3-11h2l-1 10-3 4h-7l-1-1v-7z"/>
<path transform="translate(1389,325)" d="m0 0h3v4h5l1 3-2 8-3-1 1-7-3-1-1 8-3 1 1-11z"/>
<path transform="translate(809,319)" d="m0 0h3v11l3-1 2-9 3-1-2 11-1 2-7 1-2-1v-9z"/>
<path transform="translate(1149,312)" d="m0 0h6l1 1v6l-3 3h-5l-1-1v-7z" fill="#484848"/>
<path transform="translate(1138,279)" d="m0 0h6l1 3h-6l-1 2 6 1 1 4-4 4-7-1v-3l7 1 1-2-6-2-1-4z"/>
<path transform="translate(1098,279)" d="m0 0h9v2h-7v4h5l-1 2h-5v4h6v2h-10l2-13z"/>
<path transform="translate(666,958)" d="m0 0h6l1 1v5l-7 1 2 2 4-1-1 3h-7l-1-1v-7z" fill="#232323"/>
<path transform="translate(705,894)" d="m0 0h11v2l-7 1-1 3 5 1v2h-6l-1 6h-3l1-11z"/>
<path transform="translate(560,495)" d="m0 0h6l-1 5h-5v2h6v4l-2 1h-7l2-11z" fill="#303030"/>
<path transform="translate(297,431)" d="m0 0h6l2 5h-3l-1-2h-3l-1 2v6l4-2 3 1-4 4h-5l-2-2v-8z"/>
<path transform="translate(469,345)" d="m0 0h6l2 5h-3l-1-2h-3l-1 2v6l4-2 3 1-4 4h-5l-2-2v-8z"/>
<path transform="translate(309,290)" d="m0 0h5l2 2v3h-3l-1-2-3 1-1 7h3l2-2 2 2-3 3h-6l-2-2v-7z"/>
<path transform="translate(509,288)" d="m0 0h5l2 2v3h-3l-1-2-3 1-1 7h3l2-2 2 2-3 3h-6l-2-2v-7z"/>
<path transform="translate(1106,364)" d="m0 0h6l1 1v6l-3 3-6-1v-6z"/>
<path transform="translate(549,349)" d="m0 0h6l1 1v6l-3 3-6-1v-6z"/>
<path transform="translate(305,316)" d="m0 0h7l1 5h-3l-1-2h-3l-2 8 8-2-2 4-6 1-3-3v-6z"/>
<path transform="translate(255,431)" d="m0 0h9v2h-7v4h5v2h-6v4h6v2h-9l1-12z"/>
<path transform="translate(798,319)" d="m0 0h6l1 3h-6l6 4-1 5-4 2-5-1-1-3 8 1-1-2-5-2v-5z"/>
<path transform="translate(346,290)" d="m0 0h9v2l-6 1-1 3h5v2h-6v4h6v2h-9l1-11z"/>
<path transform="translate(546,288)" d="m0 0h9v2l-6 1-1 3h5v2h-6v4h6v2h-9l1-11z"/>
<path transform="translate(484,454)" d="m0 0h2l1 2 2-2h5v2h-4l4 2v4l-6 1-3-1-3 1z" fill="#6A6969"/>
<path transform="translate(967,322)" d="m0 0 5 1-1 9-7 1-2-3 2-4 1-3z" fill="#767575"/>
<path transform="translate(1114,308)" d="m0 0h5l2 2v3h-3l-1-2-3 1-1 7 4-1 3-1-2 4-1 1-7-1-1-7 3-5z"/>
<path transform="translate(1067,279)" d="m0 0h5l2 2v3h-3l-1-2-3 1-1 7 4-1 3-1-2 4-1 1-7-1-1-7 3-5z"/>
<path transform="translate(1040,279)" d="m0 0h5l2 2v3h-3l-1-2-3 1-1 7 4-1 3-1-2 4-1 1-7-1-1-7 3-5z"/>
<path transform="translate(740,893)" d="m0 0h6l-2 15-3-2v-5l-7-2 1-3 7 1z" fill="#EDECEC"/>
<path transform="translate(307,456)" d="m0 0 5 1 1 4-4-1h-3l-1 1-1 7 5-2 3 1-3 3h-7l-1-1v-8l3-4z"/>
<path transform="translate(386,290)" d="m0 0 6 1 1 4h-3v-2h-5v8h3l2-2v4l-1 1h-6l-2-2v-7z"/>
<path transform="translate(217,290)" d="m0 0 6 1 1 4h-3v-2h-5v8h3l2-2v4l-1 1h-6l-2-2v-7z"/>
<path transform="translate(586,288)" d="m0 0 6 1 1 4h-3v-2h-5v8h3l2-2v4l-1 1h-6l-2-2v-7z"/>
<path transform="translate(417,288)" d="m0 0 6 1 1 4h-3v-2h-5v8h3l2-2v4l-1 1h-6l-2-2v-7z"/>
<path transform="translate(420,624)" d="m0 0h8l1 5-2 2-5 1-1 4-3-1z" fill="#2B2B2B"/>
<path transform="translate(230,483)" d="m0 0h8l1 5-2 2-5 1-1 4-3-1z" fill="#2B2B2B"/>
<path transform="translate(482,370)" d="m0 0 5 2v3l-7-2-1 9 7-2-2 4h-7l-2-3 1-7 3-3z"/>
<path transform="translate(885,286)" d="m0 0h11v3h-5l-1 11-4 1 2-12-4-1z"/>
<path transform="translate(1628,467)" d="m0 0 4 1-1 11h-3v-9l-2 1-2 8h-3l1-9 1-2z"/>
<path transform="translate(511,374)" d="m0 0h5l1 1-1 10-9-1 1-4 6-2v-2l-5 1v-2z"/>
<path transform="translate(492,374)" d="m0 0h5l1 1-1 10-9-1 1-4 6-2v-2l-5 1v-2z"/>
<path transform="translate(412,652)" d="m0 0h8v6l-7 1-1 5h-2l1-10z" fill="#2D2D2D"/>
<path transform="translate(465,600)" d="m0 0h8v6l-7 1-1 5h-2l1-10z" fill="#2D2D2D"/>
<path transform="translate(550,451)" d="m0 0h8v6l-7 1-1 5h-2l1-10z" fill="#2D2D2D"/>
<path transform="translate(1366,356)" d="m0 0h9v7l-1 4h-3l1-9-3 1-2 8h-3z"/>
<path transform="translate(1307,356)" d="m0 0h9l-1 11h-3l1-9-3 1-2 8h-3l1-10z"/>
<path transform="translate(292,345)" d="m0 0h10v3h-7v2l4 1v2h-5l-1 6h-3z"/>
<path transform="translate(1350,329)" d="m0 0h9l-1 11h-3l1-9-3 1-2 8h-3l1-10z"/>
<path transform="translate(1359,303)" d="m0 0h9v7l-1 4h-3l1-9-3 1-2 8h-3z"/>
<path transform="translate(1293,303)" d="m0 0h9v7l-1 4h-3l1-9-3 1-2 8h-3z"/>
<path transform="translate(1249,299)" d="m0 0 4 1 2 3 3-4 3 1-6 9-1 5h-3v-7l-2-5z"/>
<path transform="translate(521,433)" d="m0 0h7l1 5-2 2h-5l-1 5h-2l1-11z" fill="#323131"/>
<path transform="translate(785,958)" d="m0 0h9v7l-1 4h-3l1-9-3 1-2 8h-3z"/>
<path transform="translate(759,958)" d="m0 0h3l-1 8h2l3-8h2l-1 11h-9v-8z"/>
<path transform="translate(698,958)" d="m0 0h3l-1 9 3-1 2-8h3l-1 9-1 2h-9z"/>
<path transform="translate(587,652)" d="m0 0h2l-2 12h-6l-1-1 1-7 1-1h5z" fill="#3C3C3C"/>
<path transform="translate(532,508)" d="m0 0h2l-2 12h-7v-6l2-3h4z" fill="#605F5F"/>
<path transform="translate(1597,468)" d="m0 0h3l-1 9 3-2 2-7 3 1-2 10h-9v-7z"/>
<path transform="translate(523,451)" d="m0 0h2l-2 12h-6l-1-1 1-7 1-1h5z" fill="#3C3C3C"/>
<path transform="translate(1284,329)" d="m0 0h2v8h2l2-8h3l-1 10-5 1-5-1 1-9z"/>
<path transform="translate(387,292)" d="m0 0 3 1v2h4v5l-3 1h-2l-4 1-1-1v-6z" fill="#ECEBEB"/>
<path transform="translate(218,292)" d="m0 0 3 1v2h4v5l-3 1h-2l-4 1-1-1v-6z" fill="#ECEBEB"/>
<path transform="translate(587,290)" d="m0 0 3 1v2h4v5l-3 1h-2l-4 1-1-1v-6z" fill="#ECEBEB"/>
<path transform="translate(418,290)" d="m0 0 3 1v2h4v5l-3 1h-2l-4 1-1-1v-6z" fill="#ECEBEB"/>
<path transform="translate(798,753)" d="m0 0h3l-2 12h6v3h-10l2-14z"/>
<path transform="translate(544,526)" d="m0 0h3l2 12h-3l-1-2-4 1h-3z" fill="#1B1B1B"/>
<path transform="translate(323,512)" d="m0 0h2l-2 12h-7v-7l2-2h3z" fill="#3C3C3C"/>
<path transform="translate(565,469)" d="m0 0 3 1-1 6 4 2-1 3v-2l-4 1-3 6h-1v-7h-5l4-3h3z" fill="#D9D7D7"/>
<path transform="translate(504,433)" d="m0 0h3l3 4 1-4h2l-2 12-3-1-2-5h-1l-1 6h-2l1-10z"/>
<path transform="translate(349,349)" d="m0 0h6l1 1-1 9h-8l-1-3 3-3h4v-3l-5 2z" fill="#242424"/>
<path transform="translate(720,624)" d="m0 0 6 1v2l-6-1 1 2 5 2-1 4-2 2h-6l-1-3 7 1-1-2-5-2 1-5z"/>
<path transform="translate(506,600)" d="m0 0h4l1 12h-2l-1-2h-4l-1 2h-2l2-6z" fill="#181818"/>
<path transform="translate(470,526)" d="m0 0h4l1 12h-2l-1-2h-4l-1 2h-2l2-6z" fill="#1B1A1A"/>
<path transform="translate(1609,439)" d="m0 0h7l-1 3-5-2 1 2 5 2-1 5-1 1h-7l-1-3 7 1v-2l-5-1-1-4z"/>
<path transform="translate(466,433)" d="m0 0h4l1 12h-2l-1-2h-4l-1 2h-2l2-6z" fill="#181818"/>
<path transform="translate(1585,194)" d="m0 0h12l-1 2-3 1-3 12h-3l1-12-3-1z"/>
<path transform="translate(659,624)" d="m0 0h5l1 3-6-1v2l6 1v5l-3 2h-5l-2-3h7l-6-3 1-4z"/>
<path transform="translate(554,508)" d="m0 0 4 1 1 11h-3v-3l-4 1-1 2h-2l2-6z" fill="#1E1D1D"/>
<path transform="translate(447,464)" d="m0 0 4 1 1 3-6-1-1 7h2v-4h4v5l-7 2-3-3 1-6 2-3z"/>
<path transform="translate(597,433)" d="m0 0 4 1 1 11h-3v-3l-5 2-2 1 2-6z" fill="#1C1C1C"/>
<path transform="translate(568,433)" d="m0 0 4 1 1 11h-3v-3l-5 2-2 1 2-6z" fill="#1C1C1C"/>
<path transform="translate(866,322)" d="m0 0 5 2v4h-7l1 2h5l-3 3-5-1-1-5z"/>
<path transform="translate(50,210)" d="m0 0 3 1-2 2-1 4-2 1h-7l-1-4 4-3h5z" fill="#5A5959"/>
<path transform="translate(729,753)" d="m0 0h3l-1 10-1 2h6v3h-9l1-12z"/>
<path transform="translate(656,753)" d="m0 0h11v2h-4l-2 13-4-1 2-12h-3z"/>
<path transform="translate(1592,466)" d="m0 0 3 1h-2v5l-3 2h-6l-1-5 3-2h5z" fill="#313131"/>
<path transform="translate(108,433)" d="m0 0h11v2h-4l-2 13-4-1 2-12h-3z"/>
<path transform="translate(1137,364)" d="m0 0h7l-1 10h-8l-1-4 7-3-3-1-2-1z" fill="#262525"/>
<path transform="translate(1071,364)" d="m0 0h7l-1 10h-8l-1-4 7-3-3-1-2-1z" fill="#262525"/>
<path transform="translate(1045,364)" d="m0 0h6l1 5h-7v3l6-1-3 3-5-1-1-1v-5z" fill="#424141"/>
<path transform="translate(885,357)" d="m0 0h6l1 4-1 6h-8l-1-4 2-2h5v-3l-5 1z" fill="#1F1F1F"/>
<path transform="translate(860,357)" d="m0 0h7l-1 10h-8l-1-4 7-3-3-1-2-1z" fill="#262525"/>
<path transform="translate(1073,338)" d="m0 0h6l1 4-1 6h-8l-1-4 2-2h5v-3l-5 1z" fill="#1F1F1F"/>
<path transform="translate(737,70)" d="m0 0h6l1 3-5-1-1 2 6 1-1 5-1 1h-7l-1-3 6 1 1-2-6-1 1-5z"/>
<path transform="translate(562,655)" d="m0 0h5l1 5-1 4h-7v-4-4z" fill="#7C7B7B"/>
<path transform="translate(523,652)" d="m0 0h2v5l3-1 2-4h2l-2 12h-2v-6l-3 1-2 5h-2l1-10z"/>
<path transform="translate(585,627)" d="m0 0h5l1 5-1 4h-7v-4-4z" fill="#7C7B7B"/>
<path transform="translate(234,512)" d="m0 0h6v3l-4-1-1 2 5 1v5l-3 2h-5l-2-3 3-1v2l4-2-5-2 1-5z"/>
<path transform="translate(581,495)" d="m0 0h5l1 3-1 6h-7l-1-4 1-4z" fill="#7B7979"/>
<path transform="translate(534,495)" d="m0 0h5l1 3-1 6h-7l-1-4 1-4z" fill="#7B7979"/>
<path transform="translate(513,492)" d="m0 0h6l1 3-3 1-2-2h-2v7l3 1-1-4h4l-1 6h-7l-2-3 1-6z"/>
<path transform="translate(464,465)" d="m0 0h4l2 5 2-5h1l-1 11-4-1-2-5-2 6h-1z"/>
<path transform="translate(436,451)" d="m0 0h6v3l-4-1-1 2 5 1v5l-3 2h-5l-2-3 3-1v2l4-2-5-2 1-5z"/>
<path transform="translate(26,433)" d="m0 0h11v2l-4 1-2 11-4 1 2-13h-3z"/>
<path transform="translate(1163,364)" d="m0 0h7v8l-1 2h-8v-5l7-1v-3l-6 1z" fill="#292929"/>
<path transform="translate(1137,338)" d="m0 0h7v8l-1 2h-8v-5l7-1v-3l-6 1z" fill="#292929"/>
<path transform="translate(1044,312)" d="m0 0h7v8l-1 2h-8v-5l7-1v-3l-6 1z" fill="#292929"/>
<path transform="translate(738,753)" d="m0 0h11v2h-4l-2 13h-3l1-11 1-2h-4z"/>
<path transform="translate(478,655)" d="m0 0h6l-1 9h-7l1-5v-3z" fill="#888686"/>
<path transform="translate(439,492)" d="m0 0h7l-1 3-4-1-1 2 5 1 1 4-3 3-7-1v-2h6l1-2-5-1-1-3z"/>
<path transform="translate(431,465)" d="m0 0h3l3 4 1-4h2l-2 11h-3l-2-5h-1l-1 5h-2l1-9z"/>
<path transform="translate(339,371)" d="m0 0h3l-1 4 5-1 1 5-1 5h-3l1-8-3 3-1 5h-3z"/>
<path transform="translate(762,41)" d="m0 0 4 1 1 5 3-6h2l-2 6-5 9-4 1-1-2 3-1v-7z"/>
<path transform="translate(654,958)" d="m0 0h6v3l-5-1 4 2 1 1v5l-1 1h-8l-1-3 8 1v-2l-6-1v-5z"/>
<path transform="translate(513,627)" d="m0 0h5l1 5-3 4-5-1-1-4z" fill="#4C4B4B"/>
<path transform="translate(552,600)" d="m0 0h3l1 5v7h-2v-3l-5 1-1 2-2-1z" fill="#1D1C1C"/>
<path transform="translate(509,578)" d="m0 0 4 1 1 5h2v-6h2l-1 9-1 2-3-1-2-5-2 6h-2z"/>
<path transform="translate(543,577)" d="m0 0 5 1v2h-5l5 4-1 4-3 2-5-1v-3h2v2l3-1 1-2-5-1v-5z"/>
<path transform="translate(351,512)" d="m0 0h6v4l-1-2-4 1-1 7 3-1 1-2-2-1h5l-1 6h-7l-2-2v-6z"/>
<path transform="translate(538,511)" d="m0 0 5 1v6l-2 2h-5l-1-1 1-7z" fill="#494848"/>
<path transform="translate(491,511)" d="m0 0 5 1v6l-2 2h-5l-1-1 1-7z" fill="#494848"/>
<path transform="translate(455,479)" d="m0 0h3l2 11h-3v-2h-5v2h-2l2-6z" fill="#1A1A1A"/>
<path transform="translate(761,477)" d="m0 0h7l1 3-5-1-2 5v2l6-2-2 4h-6l-2-2 1-7z"/>
<path transform="translate(79,404)" d="m0 0 4 1-2 12h6l-1 2h-9l1-10z"/>
<path transform="translate(353,374)" d="m0 0 5 1v5h-7l1 2h5l-3 3-4-1-1-1 1-7z" fill="#222"/>
<path transform="translate(956,357)" d="m0 0h6l1 5h-7l1 2h5l-2 3h-5l-1-1v-7z" fill="#201F1F"/>
<path transform="translate(933,357)" d="m0 0h6l1 5h-7l1 2h5l-2 3h-5l-1-1v-7z" fill="#201F1F"/>
<path transform="translate(1377,329)" d="m0 0h7l1 3-5-1-2 5v2l6-2-2 4h-6l-2-2 1-7z"/>
<path transform="translate(1073,312)" d="m0 0h6l1 5h-7l1 2h5l-2 3h-5l-1-1v-7z" fill="#201F1F"/>
<path transform="translate(545,627)" d="m0 0h6v7l-1 2h-7l1-8z" fill="#6E6D6D"/>
<path transform="translate(490,577)" d="m0 0 5 1 1 4h-3l-1-2h-2l-1 7 6-1-4 4-5-1-1-6 3-5z"/>
<path transform="translate(581,529)" d="m0 0 5 1v6l-2 2h-5l-1-1v-5z" fill="#4D4C4C"/>
<path transform="translate(388,515)" d="m0 0h6v7l-1 2h-7l1-8z" fill="#6E6D6D"/>
<path transform="translate(281,515)" d="m0 0h6v7l-1 2h-7l1-8z" fill="#6E6D6D"/>
<path transform="translate(362,515)" d="m0 0h5l1 1v5l-3 3-5-1v-6z" fill="#4B4B4B"/>
<path transform="translate(478,495)" d="m0 0h5l1 1-1 7-6 1-1-1 1-7z" fill="#4D4C4C"/>
<path transform="translate(333,486)" d="m0 0h6v7l-1 2h-7l1-8z" fill="#6E6D6D"/>
<path transform="translate(300,486)" d="m0 0h6v7l-1 2h-7l1-8z" fill="#6E6D6D"/>
<path transform="translate(381,486)" d="m0 0h5l1 1-1 7-6 1-1-1 1-7z" fill="#4D4C4C"/>
<path transform="translate(349,483)" d="m0 0h7l1 4h-3l-2-2h-2v7l6-1-3 4h-5l-2-2 1-7z"/>
<path transform="translate(476,433)" d="m0 0h7l1 4h-3l-2-2h-2v7l6-1-3 4h-5l-2-2 1-7z"/>
<path transform="translate(167,433)" d="m0 0h3l-1 13h6l-1 2h-9l1-10z"/>
<path transform="translate(99,433)" d="m0 0h3l-1 12 5 1v2h-10l2-13z"/>
<path transform="translate(750,923)" d="m0 0h3l-1 12 5 1v2h-9l1-11z"/>
<path transform="translate(474,624)" d="m0 0h2v5h4l1-5h2l-1 10-1 2h-2v-5h-3l-2 5h-2z"/>
<path transform="translate(561,600)" d="m0 0h6v3l-4-1-1 2 5 1v5l-3 2-6-1v-2h6l-5-4 1-4z"/>
<path transform="translate(530,600)" d="m0 0h7l-1 3-4-1-1 2 5 1 1 4-3 3h-5l-2-3 7 1v-3l-5-1v-5z"/>
<path transform="translate(454,600)" d="m0 0h7l-1 3-4-1-1 2 5 1 1 4-3 3h-5l-2-3 7 1v-3l-5-1v-5z"/>
<path transform="translate(447,528)" d="m0 0 8 1v7h-3v-2l-3 2-4-1 1-6z" fill="#EEEDED"/>
<path transform="translate(428,510)" d="m0 0 8 1v7h-3v-2l-3 2-4-1 1-6z" fill="#EEEDED"/>
<path transform="translate(1527,465)" d="m0 0 3 1v2l3 1v2l-6 1 2 1-1 3-5-1 1-7z" fill="#E1E0E0"/>
<path transform="translate(446,451)" d="m0 0h2v9h3l2-9h2l-1 9-3 3h-5l-2-2z"/>
<path transform="translate(572,171)" d="m0 0h3l-1 9-1 4h6v2h-10z"/>
<path transform="translate(594,482)" d="m0 0h5l1 1v5l-4 3-4-1v-6z" fill="#4F4F4F"/>
<path transform="translate(486,482)" d="m0 0h5l1 1v5l-4 3-4-1v-6z" fill="#4F4F4F"/>
<path transform="translate(659,477)" d="m0 0h7l1 2h-6l4 2 1 5-2 2h-6l-2-3 8 1v-2l-6-1v-5z"/>
<path transform="translate(740,473)" d="m0 0h3v4h2v2h-3l-1 7h2v2h-5l1-9h-2v-2h3z"/>
<path transform="translate(574,468)" d="m0 0h5l1 1v5l-4 3-4-1v-6z" fill="#4F4F4F"/>
<path transform="translate(104,208)" d="m0 0h2v4h2v2h-3v6l2 2-5 1-1-5 1-4-2-1z"/>
<path transform="translate(1531,196)" d="m0 0 4 1 1 1-1 7-3 2h-3l1-10z" fill="#E7E6E6"/>
<path transform="translate(1623,196)" d="m0 0h3l1 6-3 5-4-1v-6z" fill="#ECEBEB"/>
<path transform="translate(495,173)" d="m0 0 3 1v7l-2 3h-4l-1-5 2-5z" fill="#ECEBEB"/>
<path transform="translate(1613,167)" d="m0 0 3 1v7l-2 3h-4l-1-5 2-5z" fill="#ECEBEB"/>
<path transform="translate(557,142)" d="m0 0 3 1-3 13-2 2h-5v-3h4l2-12z"/>
<path transform="translate(446,526)" d="m0 0h6l1 4-6-1-1 6 6-1-2 4h-6l-1-1v-7z"/>
<path transform="translate(427,508)" d="m0 0h6l1 4-6-1-1 6 6-1-2 4h-6l-1-1v-7z"/>
<path transform="translate(61,461)" d="m0 0 4 2-1 7-2 2-4-1v-6z" fill="#eee"/>
<path transform="translate(440,433)" d="m0 0 3 1-1 8h3l2-9h2l-1 10-3 2h-5l-1-1v-8z"/>
<path transform="translate(476,600)" d="m0 0h8v2h-6v3l4 1-4 1-1 3h6l-1 2h-8z"/>
<path transform="translate(246,512)" d="m0 0h6l1 4-5-2-2 3v4l6-1-1 3-6 1-2-1-1-5 2-5z"/>
<path transform="translate(479,434)" d="m0 0 2 1v2l5-1-1 8-1-3-7 2-1-1 1-7z" fill="#EFEFEF"/>
<path transform="translate(454,433)" d="m0 0h6l1 4-5-2-2 3v4l6-1-1 3-6 1-2-1-1-5 2-5z"/>
<path transform="translate(1602,165)" d="m0 0h3l-2 13-4 3h-4l1-3 3-1z"/>
<path transform="translate(706,625)" d="m0 0h3l2 5 3-5 1 2-6 12-5 1v-2l3-1z"/>
<path transform="translate(488,600)" d="m0 0h7v4h-2l-2-2-2 1-1 7 6-2-1 3-6 1-2-2v-6z"/>
<path transform="translate(443,600)" d="m0 0h9l-1 2h-6v3l4 1-4 1-1 3h6v2h-9z"/>
<path transform="translate(87,487)" d="m0 0h3v2l-3 3h2v2l-2 1-2 8h-3v-10l3-5z"/>
<path transform="translate(433,478)" d="m0 0 5 2v3l-3-1v-2l-3 1-1 7 6-1-4 4-5-1-1-5 3-6z"/>
<path transform="translate(417,433)" d="m0 0h9l-1 2h-6v3l4 1-4 1-1 3h6v2h-9z"/>
<path transform="translate(1174,364)" d="m0 0h8l-1 10-3-1 1-7h-3l-1 8-3-1z"/>
<path transform="translate(1381,352)" d="m0 0h2v4h2v2h-3v6l2 2-5 1-1-4v-7h2z"/>
<path transform="translate(785,319)" d="m0 0h10l-1 2h-3l-2 11-3 1 1-11-3-2z" fill="#090909"/>
<path transform="translate(1374,299)" d="m0 0h2v4h2v2h-3v6l2 2-5 1-1-4v-7h2z"/>
<path transform="translate(1544,167)" d="m0 0 3 1 1 4-2 5-4 1-1-1v-6z" fill="#F2F1F1"/>
<path transform="translate(634,954)" d="m0 0h3l-1 11-2 4h-6v-2l3-1z"/>
<path transform="translate(743,788)" d="m0 0h2v3l-2 1v4l-3 8h-2v-11h2l1-4z"/>
<path transform="translate(535,624)" d="m0 0h6l1 4-5-2-2 4v3l6-1-1 3-6 1-2-2v-7z"/>
<path transform="translate(639,623)" d="m0 0 5 1 1 4-3 5h-4z" fill="#EFEEEE"/>
<path transform="translate(451,492)" d="m0 0h6l1 4-5-2-2 4v3l6-1-1 3-6 1-2-2v-7z"/>
<path transform="translate(1590,435)" d="m0 0h3l-2 12-2 3h-6l4-4 2-10z"/>
<path transform="translate(1247,354)" d="m0 0 4 1 1 5-5 5h-2l1-10z" fill="#F0F0F0"/>
<path transform="translate(526,349)" d="m0 0h2l-1 8 3-3 1-5h3l-2 10h-7l-1-4z"/>
<path transform="translate(1280,274)" d="m0 0h4v7l-2 3h-4l-1-4 2-5z" fill="#F2F1F1"/>
<path transform="translate(16,210)" d="m0 0 5 1 1 4-3 5h-4z" fill="#EFEEEE"/>
<path transform="translate(567,145)" d="m0 0h4v7l-2 3h-4l-1-4 2-5z" fill="#F2F1F1"/>
<path transform="translate(499,145)" d="m0 0h4l1 4-2 5-5 1v-7z" fill="#F2F1F1"/>
<path transform="translate(792,353)" d="m0 0h10v2l-3 1-2 10-3 1 1-12h-3z"/>
<path transform="translate(1280,351)" d="m0 0h4v2l-3 3h2v2l-2 1-2 8-3-1 1-10z"/>
<path transform="translate(1114,338)" d="m0 0h2l-1 8h3l1-7 3-1-1 10h-8v-8z"/>
<path transform="translate(783,625)" d="m0 0h8l-2 4-3 4 4 1v2h-9l2-5 4-5z"/>
<path transform="translate(564,529)" d="m0 0h5l1 5-1 4h-7v-4l5-2h-3z" fill="#212121"/>
<path transform="translate(605,511)" d="m0 0h5v8l-4 1h-4l1-5 2-1-2-2zm1 5 1 2z" fill="#202020"/>
<path transform="translate(584,511)" d="m0 0h5l1 5-1 4h-7v-4l5-2h-3z" fill="#212121"/>
<path transform="translate(331,374)" d="m0 0 4 1 1 3h-3v-2l-3 2 1 4 4-1-4 4-4-1-1-1 1-7z"/>
<path transform="translate(476,468)" d="m0 0h7l-1 8-7 1-1-3 1-2 6-1v-2l-5 1z" fill="#232323"/>
<path transform="translate(450,345)" d="m0 0h2l-1 12h5v2h-9l2-13z"/>
<path transform="translate(456,624)" d="m0 0h8v2l-6 1-1 2h5v2h-5l-1 5h-2l1-11z"/>
<path transform="translate(266,483)" d="m0 0h8v2l-6 1-1 2h5v2h-5l-1 5h-2l1-11z"/>
<path transform="translate(653,472)" d="m0 0h3v7l-2 9h-3l1-12z" fill="#201F1F"/>
<path transform="translate(1259,351)" d="m0 0h3v7l-2 9h-3l1-12z" fill="#201F1F"/>
<path transform="translate(360,349)" d="m0 0h6v2l-5-1 1 2 4 1-1 5-1 1h-6v-3l5 1-4-2-1-4z"/>
<path transform="translate(937,321)" d="m0 0 3 1h-2l-1 5-6 2-2-1 1-5 5-1 2 1z" fill="#333232"/>
<path transform="translate(447,652)" d="m0 0h8v2h-6v3h4v2h-5v5h-3z"/>
<path transform="translate(1095,312)" d="m0 0h6l1 2-6-1v2l5 1-1 5-1 1h-5l-2-3 7 1v-2l-5-1z"/>
<path transform="translate(481,511)" d="m0 0 5 1v4h-6l1 2 4-1-1 3h-5l-1-1v-5z" fill="#202020"/>
<path transform="translate(339,349)" d="m0 0h5l1 2h-5l4 2 1 3-2 3h-6v-3l4 1 1-2-5-1v-4z"/>
<path transform="translate(335,316)" d="m0 0h3l-1 9-1 2h6v2h-9z"/>
<path transform="translate(717,70)" d="m0 0h3l-1 10-2 5h-4v-2h2z"/>
<path transform="translate(746,894)" d="m0 0h3l-2 14-4 1 2-13z"/>
<path transform="translate(635,753)" d="m0 0h3l-1 10-1 5h-3l1-12z"/>
<path transform="translate(443,459)" d="m0 0 4 5-4 4-2 3-2-1 1-5-2-1z" fill="#E8E7E7"/>
<path transform="translate(335,457)" d="m0 0h3l-2 11h5v2h-8l1-10z"/>
<path transform="translate(343,433)" d="m0 0 4 1-1 7-4 2-1-1v-6z" fill="#E8E7E7"/>
<path transform="translate(5,433)" d="m0 0h3l-2 14-4 1 2-13z"/>
<path transform="translate(497,347)" d="m0 0 4 1-1 7-4 2-1-1v-6z" fill="#E8E7E7"/>
<path transform="translate(283,347)" d="m0 0 3 1-1 7-1 2-4-1v-6z" fill="#EBEAEA"/>
<path transform="translate(1276,329)" d="m0 0h4l-2 14-3 1-1-6 2-6z"/>
<path transform="translate(903,322)" d="m0 0 4 1 1 2-6-1v2l5 1-1 5-5 1-2-1v-2l6 1v-2l-5-1 1-5z"/>
<path transform="translate(844,319)" d="m0 0h5l-2 13h-3l1-9h-2z" fill="#030303"/>
<path transform="translate(400,292)" d="m0 0 3 1-1 7-1 2-4-1v-6z" fill="#EBEAEA"/>
<path transform="translate(245,292)" d="m0 0 3 2-1 6-2 2h-3l-1-4 2-5z" fill="#E9E8E8"/>
<path transform="translate(231,292)" d="m0 0 3 1-1 7-1 2-4-1v-6z" fill="#EBEAEA"/>
<path transform="translate(600,290)" d="m0 0 3 1-1 7-1 2-4-1v-6z" fill="#EBEAEA"/>
<path transform="translate(445,290)" d="m0 0 3 2-1 6-2 2h-3l-1-4 2-5z" fill="#E9E8E8"/>
<path transform="translate(431,290)" d="m0 0 3 1-1 7-1 2-4-1v-6z" fill="#EBEAEA"/>
<path transform="translate(927,286)" d="m0 0h3l-1 12-1 3h-3l1-10z"/>
<path transform="translate(1054,281)" d="m0 0h3l1 5-3 5-3-1-1-3 2-5z" fill="#EDECEC"/>
<path transform="translate(1599,194)" d="m0 0h3l-2 14-4 1 2-13z"/>
<path transform="translate(712,923)" d="m0 0h3l-1 11-1 4h-3l1-10z"/>
<path transform="translate(670,620)" d="m0 0 3 1-3 15h-3l2-14z"/>
<path transform="translate(166,207)" d="m0 0h3l-1 10-2 6h-2l1-11z"/>
<path transform="translate(499,578)" d="m0 0h8v1h-6v3l4 2h-5v3l5 1v1h-8l1-10z"/>
<path transform="translate(310,371)" d="m0 0h2l2 5-2 1-1 6 2 1-4 1-1-1v-7l-1-2 2-1z"/>
<path transform="translate(966,357)" d="m0 0h7l-2 4-3 4h4v2h-8l2-5 3-4z"/>
<path transform="translate(482,347)" d="m0 0 4 1 1 5-4 4h-2z" fill="#E9E7E7"/>
<path transform="translate(1062,312)" d="m0 0 3 1 1 3 2-4 2 1-6 12-4-1 2-1z"/>
<path transform="translate(335,292)" d="m0 0 4 1v6l-3 3h-3l1-9z" fill="#EAE9E9"/>
<path transform="translate(271,292)" d="m0 0 4 1v6l-3 3h-3l1-9z" fill="#EAE9E9"/>
<path transform="translate(535,290)" d="m0 0 4 1v6l-3 3h-3l1-9z" fill="#EAE9E9"/>
<path transform="translate(471,290)" d="m0 0 4 1v6l-3 3h-3l1-9z" fill="#EAE9E9"/>
<path transform="translate(530,578)" d="m0 0h9v1l-6 1v2l3 2-4 1v2l5 1v1h-8z"/>
<path transform="translate(332,515)" d="m0 0 3 1 1-1h5v2h-4l4 2v4l-6 1-1-2 4-1-5-2h-2z" fill="#151515"/>
<path transform="translate(533,482)" d="m0 0h5l1 4h-6v3l5-1-3 3-4-1v-6z" fill="#232222"/>
<path transform="translate(270,433)" d="m0 0 4 1v6l-5 3-1-4z" fill="#EBEBEB"/>
<path transform="translate(1129,361)" d="m0 0 3 1 1 4h-2l-1 6h2v2l-5-1v-9h2z"/>
<path transform="translate(890,323)" d="m0 0h3v5h2l2-5 1 2-6 11-4-1 4-1z"/>
<path transform="translate(1274,299)" d="m0 0h3l-1 10-1 5h-3l1-10z"/>
<path transform="translate(734,789)" d="m0 0 3 1-3 14h-3l2-13z"/>
<path transform="translate(569,495)" d="m0 0h2v7l2-1 2-6h2l-2 9h-6l-1-3z"/>
<path transform="translate(566,493)" d="m0 0 3 1v10l-3 1v-3h-6v-2l5-1z" fill="#DAD9D9"/>
<path transform="translate(522,495)" d="m0 0h2v7l2-1 2-6h2l-2 9h-6l-1-3z"/>
<path transform="translate(78,488)" d="m0 0h3l-2 15h-3l1-11z"/>
<path transform="translate(647,473)" d="m0 0h3l-2 13-1 2-3-1 2-12z"/>
<path transform="translate(512,465)" d="m0 0h2v3h5l-1 8h-2v-6h-2l-2 6-2-1z"/>
<path transform="translate(903,353)" d="m0 0h3l-1 10-3 4h-4v-2l4-1z"/>
<path transform="translate(520,345)" d="m0 0h3l-2 12-2 2h-4v-2l3-2z"/>
<path transform="translate(1310,325)" d="m0 0h3l-2 15h-3l1-11z"/>
<path transform="translate(758,37)" d="m0 0h3l-2 14-4 1z"/>
<path transform="translate(521,529)" d="m0 0 6 2 3-1v3l-7 2-1 3h-2z" fill="#787777"/>
<path transform="translate(593,511)" d="m0 0h6l1 1-1 8h-2l1-7h-3l-1 7h-2z"/>
<path transform="translate(410,508)" d="m0 0h3l-1 10h4v2h-8z" fill="#040404"/>
<path transform="translate(438,487)" d="m0 0 1 3h6v2l-6 1-3 3-1-3-3-2z" fill="#D3D1D1"/>
<path transform="translate(739,41)" d="m0 0 5 1-4 4v4l2 2-4 1-2-2 1-7z"/>
<path transform="translate(679,11)" d="m0 0h6l1 4-2 2h-6z" fill="#E7E6E6"/>
<path transform="translate(690,893)" d="m0 0h12l-1 3v-2h-2l-1 8h-2l-2-5v-3z" fill="#E1E0E0"/>
<path transform="translate(540,600)" d="m0 0h8v2h-3l-2 10h-2l1-10-3-1z"/>
<path transform="translate(506,529)" d="m0 0 5 1v7l-3 1v-3h-2l-1 2 2 1h-4v-4l6-1v-3l-4 2-1-2z"/>
<path transform="translate(573,511)" d="m0 0h2l-1 7h3l1-7h2l-1 9h-7v-7z"/>
<path transform="translate(511,511)" d="m0 0 5 1v7l-3 1v-3h-2l-1 2 2 1h-4v-4l6-1v-3l-4 2-1-2z"/>
<path transform="translate(499,511)" d="m0 0h7v7l-1 2h-2l1-7h-3l-1 7h-2z"/>
<path transform="translate(724,958)" d="m0 0h6v3l-3 2-2 6h-2z"/>
<path transform="translate(696,624)" d="m0 0 4 1-3 3v8l-4-1v-7z"/>
<path transform="translate(104,492)" d="m0 0h6v3l-3 2-2 6h-2z"/>
<path transform="translate(573,482)" d="m0 0 2 1-1 6 2-1 2-6h2l-1 8-7 1v-8z"/>
<path transform="translate(495,482)" d="m0 0h6v2l-5-1v2l5 1-1 4-5 1-2-1v-2h5l-4-2z"/>
<path transform="translate(583,482)" d="m0 0h7l-1 8h-2v-6l-2-1-1 7-3-1z"/>
<path transform="translate(553,468)" d="m0 0 2 1-1 6 2-1 2-6h2l-1 8-7 1v-8z"/>
<path transform="translate(563,468)" d="m0 0h7l-1 8h-2v-6l-2-1-1 7-3-1z"/>
<path transform="translate(424,451)" d="m0 0h9v2h-4l-1 10h-2l1-10h-3z"/>
<path transform="translate(755,956)" d="m0 0 2 1-2 6-6 1-1-4z" fill="#555454"/>
<path transform="translate(760,793)" d="m0 0h6l-1 3-3 3-1 5h-3l1-9z"/>
<path transform="translate(685,793)" d="m0 0h6l-1 3-3 3-1 5h-3l1-9z"/>
<path transform="translate(569,627)" d="m0 0h5l1 4-3-1h-2l1 4h3l-2 2-5-1-1-4z"/>
<path transform="translate(487,627)" d="m0 0h5l1 4-3-1h-2l1 4h3l-2 2-5-1-1-4z"/>
<path transform="translate(497,627)" d="m0 0h5l1 3-4-1-2 5 5-1-2 3-5-1-1-4z"/>
<path transform="translate(767,624)" d="m0 0 2 1-3 3-2 8h-3l1-10z"/>
<path transform="translate(430,526)" d="m0 0h2l-1 10h4v2h-7l1-11z"/>
<path transform="translate(471,508)" d="m0 0h2l-1 10h4v2h-7l1-11z"/>
<path transform="translate(487,495)" d="m0 0h5l1 2-5-1v2l5 1-1 4-1 1h-5v-3l4 1-4-2z"/>
<path transform="translate(718,477)" d="m0 0h5l-2 4-2 7h-3l1-10z"/>
<path transform="translate(1567,467)" d="m0 0 2 1-3 3-2 8h-3l1-10z"/>
<path transform="translate(129,463)" d="m0 0h6l-1 3-3 3-1 5h-3l1-9z"/>
<path transform="translate(909,353)" d="m0 0h3l-1 9-1 5h-3z" fill="#242323"/>
<path transform="translate(543,345)" d="m0 0h3l-1 9-1 5h-3z" fill="#242323"/>
<path transform="translate(460,345)" d="m0 0h3l-1 9-1 5h-3z"/>
<path transform="translate(1137,308)" d="m0 0h3l-1 9-1 5h-3z" fill="#242323"/>
<path transform="translate(1124,308)" d="m0 0h3l-2 13-3 1 1-12z" fill="#242323"/>
<path transform="translate(376,290)" d="m0 0h3l-1 10-1 4h-3z"/>
<path transform="translate(576,288)" d="m0 0h3l-1 10-1 4h-3z"/>
<path transform="translate(155,211)" d="m0 0 2 1-3 3-2 8h-3l1-10z"/>
<path transform="translate(98,211)" d="m0 0 1 3-3 3-2 6h-2l1-11z"/>
<path transform="translate(593,655)" d="m0 0 5 1v3h-2v-3l-2 1-2 5 6-1-3 3-5-1 1-7z"/>
<path transform="translate(536,655)" d="m0 0 5 1v3h-2v-3l-2 1-2 5 6-1-3 3-5-1 1-7z"/>
<path transform="translate(304,515)" d="m0 0 5 1v3h-2v-3l-2 1-2 5 6-1-3 3-5-1 1-7z"/>
<path transform="translate(497,495)" d="m0 0h5l1 4-3-1 1-2-3 2 1 4 3-1v2l-6 1-1-1v-6z"/>
<path transform="translate(551,495)" d="m0 0 5 1v3h-2v-3l-2 1-2 5 6-1-3 3-5-1 1-7z"/>
<path transform="translate(523,482)" d="m0 0h2l2 3 3-3-2 6-4 6h-3v-2l3-2z"/>
<path transform="translate(578,454)" d="m0 0h5l1 4-3-1 1-2-3 2 1 4 3-1v2l-6 1-1-1v-6z"/>
<path transform="translate(1285,356)" d="m0 0h6l-1 3h-2l-1 7-3 1z"/>
<path transform="translate(953,319)" d="m0 0h3l-1 8-1 5h-3z" fill="#2E2D2D"/>
<path transform="translate(1078,279)" d="m0 0h2l-1 11-1 3h-3l2-13z"/>
<path transform="translate(447,625)" d="m0 0 3 1-1 7-4 1-1-4z" fill="#E6E5E5"/>
<path transform="translate(515,600)" d="m0 0h2l-1 10h5l-1 2h-7z"/>
<path transform="translate(353,513)" d="m0 0 3 1v3l2 1-3 1-1 3h-3l-1-4z" fill="#DEDCDC"/>
<path transform="translate(309,486)" d="m0 0h2l1 4 2-4 2 1-6 11h-3v-2h3z"/>
<path transform="translate(602,482)" d="m0 0h7l-2 4-1 3h2v2l-7-1 2-4 2-2z" fill="#272727"/>
<path transform="translate(257,484)" d="m0 0 3 1-1 7-4 1-1-4z" fill="#E6E5E5"/>
<path transform="translate(503,468)" d="m0 0h5l1 2-5-1v2h4v5l-5 1-2-1v-2l5 1v-2l-4-1z"/>
<path transform="translate(527,454)" d="m0 0h2l1 4 2-4 2 1-6 11h-3v-2h3z"/>
<path transform="translate(1152,364)" d="m0 0h3l1 5 3-5 2 1-5 9h-2z"/>
<path transform="translate(1059,364)" d="m0 0h3l2 4 2-4 2 1-5 9h-2z"/>
<path transform="translate(1266,356)" d="m0 0h3v2h-2v6l1 3h-4l-1-6z"/>
<path transform="translate(601,655)" d="m0 0h6l-2 4-2 2 3 1v2h-7l4-8z" fill="#040404"/>
<path transform="translate(504,655)" d="m0 0 5 1v3l-4-2-2 5 6-1-2 3-5-1-1-5z"/>
<path transform="translate(469,653)" d="m0 0 3 1v6l-2 2h-3v-6z" fill="#EAE9E9"/>
<path transform="translate(478,579)" d="m0 0 3 1-1 7h-4v-6z" fill="#EAE9E9"/>
<path transform="translate(465,579)" d="m0 0 4 1-1 7-4 1z" fill="#E8E7E7"/>
<path transform="translate(319,486)" d="m0 0 5 1v3l-4-2-2 5 6-1-2 3-5-1-1-5z"/>
<path transform="translate(443,480)" d="m0 0 4 1-1 7-4 1z" fill="#E8E7E7"/>
<path transform="translate(489,454)" d="m0 0h5v2h-4l4 2v4l-6 1-1-2 4-1-4-2z"/>
<path transform="translate(536,454)" d="m0 0h5l1 2-5-1v2l4 1v4l-6 1-1-2h4l1-2h-4z"/>
<path transform="translate(587,454)" d="m0 0h6l-3 5-1 1 3 2-1 1h-6l1-4 3-3z"/>
<path transform="translate(562,454)" d="m0 0 5 1v3l-4-2-2 5 6-1-2 3-5-1-1-5z"/>
<path transform="translate(504,454)" d="m0 0 5 1v3l-4-2-2 5 6-1-2 3-5-1-1-5z"/>
<path transform="translate(475,452)" d="m0 0 3 1 1 3-3 5h-3l1-8z" fill="#ECEBEB"/>
<path transform="translate(496,434)" d="m0 0 2 1-1 7-4 1v-7z" fill="#ECEBEB"/>
<path transform="translate(431,434)" d="m0 0 3 1 1 3-3 5h-3l1-8z" fill="#ECEBEB"/>
<path transform="translate(334,431)" d="m0 0 3 1-3 13h-2l1-11z"/>
<path transform="translate(541,314)" d="m0 0h3l-2 13h-3l1-9z"/>
<path transform="translate(1307,303)" d="m0 0h3l-2 8 2 1v2h-5v-8z"/>
<path transform="translate(779,41)" d="m0 0 5 1-1 9-3 1v-8l-2-2z"/>
<path transform="translate(645,958)" d="m0 0 4 1v7l-3 3-3-1 2-3z"/>
<path transform="translate(439,653)" d="m0 0 2 1v6l-4 2-1-1 1-7z" fill="#F2F1F1"/>
<path transform="translate(506,624)" d="m0 0h2v3l2 1-3 1v5l2 1-4 1-1-2v-7h2z"/>
<path transform="translate(231,513)" d="m0 0h1v5l6 2-1 2-7-1-1-5z" fill="#E9E8E8"/>
<path transform="translate(452,510)" d="m0 0h3v6l-1 2h-4v-6z" fill="#F0EFEF"/>
<path transform="translate(1537,468)" d="m0 0h2v8l2 2-5 1-1-4z"/>
<path transform="translate(446,466)" d="m0 0 6 2-2 2h-3l1 4h-4l1-7z" fill="#DFDDDD"/>
<path transform="translate(296,457)" d="m0 0h3l-2 13h-3z"/>
<path transform="translate(276,457)" d="m0 0h3l-2 13h-3z"/>
<path transform="translate(1148,360)" d="m0 0h3l-2 13-3 1 1-9z"/>
<path transform="translate(328,345)" d="m0 0h2l-2 14h-3l2-13z"/>
<path transform="translate(1110,336)" d="m0 0 2 1-3 6-5-1-1-4z" fill="#494848"/>
<path transform="translate(316,316)" d="m0 0h3l-2 13h-3z"/>
<path transform="translate(297,316)" d="m0 0 3 1-2 11-3 1 1-11z"/>
<path transform="translate(277,316)" d="m0 0 3 1-2 11-3 1 1-11z"/>
<path transform="translate(1084,308)" d="m0 0h3l-2 13-3 1 1-9z"/>
<path transform="translate(520,578)" d="m0 0h8l-3 5-2 6h-2l1-9z"/>
<path transform="translate(377,512)" d="m0 0h2l1 5h-2l1 7-4-1v-8h2z"/>
<path transform="translate(560,495)" d="m0 0h6l-1 5h-6z" fill="#3E3E3E"/>
<path transform="translate(117,493)" d="m0 0 2 1-1 7h-4l1-7z" fill="#E2E1E1"/>
<path transform="translate(487,465)" d="m0 0h2l1 4-2 5 1 3-4-1v-8z"/>
<path transform="translate(316,457)" d="m0 0h2l-1 12-3 1 1-11z"/>
<path transform="translate(509,379)" d="m0 0h5v4l2 2-9-1 1-4z" fill="#6B6A6A"/>
<path transform="translate(490,379)" d="m0 0h5v4l2 2-9-1 1-4z" fill="#6B6A6A"/>
<path transform="translate(1056,360)" d="m0 0h2l-1 10-1 4-3-1z"/>
<path transform="translate(538,345)" d="m0 0h2l-1 10-1 4-3-1z"/>
<path transform="translate(1132,334)" d="m0 0h2l-1 10-1 4-3-1z"/>
<path transform="translate(852,319)" d="m0 0 3 1-2 12h-3z" fill="#1A1919"/>
<path transform="translate(490,314)" d="m0 0h2l-1 10-1 3-3-1 2-11z"/>
<path transform="translate(709,70)" d="m0 0 4 1v7l-3 3-3-1 2-2 1-5z"/>
<path transform="translate(644,959)" d="m0 0 2 1-1 7h-4l1-7z" fill="#E8E7E7"/>
<path transform="translate(458,528)" d="m0 0h4v6l-2 2h-3z" fill="#F3F3F3"/>
<path transform="translate(439,510)" d="m0 0h4v6l-2 2h-3z" fill="#F3F3F3"/>
<path transform="translate(472,492)" d="m0 0h3l-2 11-5 1v-2l2-1z"/>
<path transform="translate(866,322)" d="m0 0 5 2v4h-5l-2-5z" fill="#414040"/>
<path transform="translate(959,319)" d="m0 0 3 1-2 12h-3z"/>
<path transform="translate(1143,308)" d="m0 0h2l-1 11-1 3h-2l1-11z"/>
<path transform="translate(774,41)" d="m0 0h3l1 3-2 8h-3z"/>
<path transform="translate(693,793)" d="m0 0h3l-2 11h-3z"/>
<path transform="translate(558,526)" d="m0 0 4 1h-2l1 4h-2l-1 7h-2v-9h2z"/>
<path transform="translate(436,494)" d="m0 0 4 4 3 1-1 3-8-1z" fill="#EAE9E9"/>
<path transform="translate(452,488)" d="m0 0h5v2l3 1h-2l-1 2h-7l-1-4 3 1z" fill="#DCDADA"/>
<path transform="translate(479,479)" d="m0 0 4 1-2 5v5h-3l-1-6 2-1z"/>
<path transform="translate(1543,468)" d="m0 0h3l-1 10-3 1-1-3z"/>
<path transform="translate(137,463)" d="m0 0h3l-2 11h-3z"/>
<path transform="translate(1599,440)" d="m0 0 3 1-1 7h-4l1-7z" fill="#E5E4E4"/>
<path transform="translate(502,374)" d="m0 0h5l-1 3h-2l-2 7h-2l1-9z"/>
<path transform="translate(1391,357)" d="m0 0 3 1-1 6-3 2-1-1v-6z" fill="#E7E6E6"/>
<path transform="translate(1360,356)" d="m0 0 3 1-2 10h-3l1-10z"/>
<path transform="translate(1320,356)" d="m0 0h3l-2 11h-3z"/>
<path transform="translate(967,322)" d="m0 0 5 1-1 9-3-1 2-7-6 1z"/>
<path transform="translate(1384,304)" d="m0 0 3 1-1 6-3 2-1-1v-6z" fill="#E7E6E6"/>
<path transform="translate(1264,304)" d="m0 0 3 1-1 7h-4l1-7z" fill="#E5E4E4"/>
<path transform="translate(1353,303)" d="m0 0 3 1-2 10h-3l1-10z"/>
<path transform="translate(113,213)" d="m0 0 4 1-1 6-4 1v-6z" fill="#EAE9E9"/>
<path transform="translate(159,212)" d="m0 0h3l-2 11h-3l1-9z"/>
<path transform="translate(144,212)" d="m0 0h3l-1 10-3 1z"/>
<path transform="translate(751,41)" d="m0 0h3l-2 11h-3z"/>
<path transform="translate(651,960)" d="m0 0 1 4 6 1v2l-4 1-5-2v-5z" fill="#E2E0E0"/>
<path transform="translate(688,625)" d="m0 0h3l-1 9-1 2-3-1z"/>
<path transform="translate(651,625)" d="m0 0h3l-1 9-1 2-3-1z"/>
<path transform="translate(751,478)" d="m0 0h2l1 3-2 5-4-1 2-6z" fill="#ECEBEB"/>
<path transform="translate(729,478)" d="m0 0 3 1-1 7-4-1 1-6z" fill="#E9E8E8"/>
<path transform="translate(708,478)" d="m0 0 3 1-1 7-4-1 1-6z" fill="#E9E8E8"/>
<path transform="translate(414,479)" d="m0 0 3 1-1 8 4 2h-7z"/>
<path transform="translate(1044,366)" d="m0 0 1 2 2 1h-2v3l6-1-3 3-5-1-1-5z"/>
<path transform="translate(858,319)" d="m0 0h2l-1 11-1 2h-2l1-10z"/>
<path transform="translate(175,213)" d="m0 0 3 1-1 6-4 1 1-7z" fill="#EEEDED"/>
<path transform="translate(58,213)" d="m0 0 3 1-1 6-4 1 1-7z" fill="#EEEDED"/>
<path transform="translate(708,71)" d="m0 0 3 3-2 5-3 1-1-3 2-5z" fill="#ECEBEB"/>
<path transform="translate(741,43)" d="m0 0h3l-1 7h-4l1-6z" fill="#DFDEDE"/>
<path transform="translate(771,795)" d="m0 0h3v6l-1 2h-3l-1-3z" fill="#F0EFEF"/>
<path transform="translate(504,482)" d="m0 0h6l1 3-1 5-4-1 2-3-2-1h2v-2l-5 1z"/>
<path transform="translate(522,468)" d="m0 0h6l1 3-1 5-4-1 2-3-2-1h2v-2l-5 1z"/>
<path transform="translate(493,468)" d="m0 0h6l1 3-1 5-4-1 2-3-2-1h2v-2l-5 1z"/>
<path transform="translate(1031,364)" d="m0 0h5l-3 4-2 6h-2l1-9z"/>
<path transform="translate(871,357)" d="m0 0h5l-3 4-2 6h-2l1-9z"/>
<path transform="translate(1148,338)" d="m0 0h5l-2 4-2 6h-2z"/>
<path transform="translate(1053,338)" d="m0 0h5v2l-2 1-2 7-3-1z"/>
<path transform="translate(980,322)" d="m0 0 1 3-3 3-1 4h-3l2-9z"/>
<path transform="translate(1129,312)" d="m0 0h5l-2 4-2 6h-2z"/>
<path transform="translate(1055,312)" d="m0 0h5v2l-2 1-2 7-3-1z"/>
<path transform="translate(545,627)" d="m0 0h6v7l-1 2-3-1 2-7-5 1z"/>
<path transform="translate(388,515)" d="m0 0h6v7l-1 2-3-1 2-7-5 1z"/>
<path transform="translate(281,515)" d="m0 0h6v7l-1 2-3-1 2-7-5 1z"/>
<path transform="translate(333,486)" d="m0 0h6v7l-1 2-3-1 2-7-5 1z"/>
<path transform="translate(300,486)" d="m0 0h6v7l-1 2-3-1 2-7-5 1z"/>
<path transform="translate(582,468)" d="m0 0h7l-4 6 3 2h-7l2-4 2-2z"/>
<path transform="translate(1274,330)" d="m0 0h2l1 3-2 5h-3v-6z" fill="#E8E7E7"/>
<path transform="translate(71,213)" d="m0 0 3 1-1 6h-4l1-6z" fill="#EAE9E9"/>
<path transform="translate(478,655)" d="m0 0h6l-1 9-3-1 2-7-5 1z"/>
<path transform="translate(698,626)" d="m0 0h2v7l-4 1v-6z" fill="#EAE9E9"/>
<path transform="translate(498,600)" d="m0 0 3 1-2 11-3-1z"/>
<path transform="translate(515,493)" d="m0 0 3 3-4 1v3h2v2l-4-1 1-7z" fill="#F2F1F1"/>
<path transform="translate(486,433)" d="m0 0 3 1-2 11-3-1z"/>
<path transform="translate(1120,364)" d="m0 0 5 1-1 8-3 1v-8z"/>
<path transform="translate(1269,357)" d="m0 0 2 1-1 6h-4l1-6z" fill="#E7E6E6"/>
<path transform="translate(1061,338)" d="m0 0 3 1-2 6 1 3-4-1v-6z"/>
<path transform="translate(941,323)" d="m0 0 3 1-1 7 2 1-4 1-1-5z"/>
<path transform="translate(882,322)" d="m0 0m-2 1h2v10l-4-2 1-7z"/>
<path transform="translate(1310,304)" d="m0 0 2 1-1 7-4-1 2-6z" fill="#EAE9E9"/>
<path transform="translate(700,798)" d="m0 0 3 1-2 3 2 2-5 1-1-5z"/>
<path transform="translate(562,655)" d="m0 0h5l1 5-1 4-3-1 1-6-4-1z"/>
<path transform="translate(780,626)" d="m0 0h1v5l-5 3h-3l-1-3 1-1h7z" fill="#D3D1D1"/>
<path transform="translate(684,626)" d="m0 0h1v5l-5 3h-3l-1-3 1-1h7z" fill="#D3D1D1"/>
<path transform="translate(585,627)" d="m0 0h5l1 5-1 4-3-1 1-6-4-1z"/>
<path transform="translate(525,600)" d="m0 0h2l-2 12h-2l1-11z"/>
<path transform="translate(439,526)" d="m0 0h2l-1 11-3 1z"/>
<path transform="translate(420,508)" d="m0 0h2l-1 11-3 1z"/>
<path transform="translate(533,455)" d="m0 0h2v4h4l-1 3h-5l-2-1z" fill="#D8D6D6"/>
<path transform="translate(589,433)" d="m0 0h2l-1 11-3 1z"/>
<path transform="translate(544,433)" d="m0 0h2l-1 11-3 1z"/>
<path transform="translate(294,374)" d="m0 0 1 3-3 3-1 4h-2l1-9z"/>
<path transform="translate(525,374)" d="m0 0 3 1 1 5-3 4-3-1 2-2z"/>
<path transform="translate(282,374)" d="m0 0 4 1 1 5-3 4-2-1 2-7-3-1z"/>
<path transform="translate(1117,364)" d="m0 0 3 1-3 9h-2l1-9z"/>
<path transform="translate(915,288)" d="m0 0 5 1-1 4h-5z" fill="#DEDCDC"/>
<path transform="translate(50,210)" d="m0 0 3 1-2 2-1 4-5 1 3-5h-2v-2z"/>
<path transform="translate(779,925)" d="m0 0h5v4l-5 1z" fill="#E3E1E1"/>
<path transform="translate(699,925)" d="m0 0h5v4l-5 1z" fill="#E3E1E1"/>
<path transform="translate(684,925)" d="m0 0 5 1v3l-6 1z" fill="#E3E1E1"/>
<path transform="translate(532,508)" d="m0 0h2l-2 12-3-1 1-7z"/>
<path transform="translate(581,495)" d="m0 0h5l1 3-1 6-3-1 1-6h-5z"/>
<path transform="translate(534,495)" d="m0 0h5l1 3-1 6-3-1 1-6h-5z"/>
<path transform="translate(520,494)" d="m0 0 3 1-1 6-3-2-5 1v-3h4v-2z" fill="#D1CFCF"/>
<path transform="translate(548,478)" d="m0 0h2l-2 12h-2l1-11z" fill="#222121"/>
<path transform="translate(692,481)" d="m0 0h5l1 3-3 2-4-1z" fill="#DAD8D8"/>
<path transform="translate(1611,472)" d="m0 0 3 1-3 4 3 1-5 1-1-4z"/>
<path transform="translate(140,435)" d="m0 0 5 1v3l-6 1z" fill="#E3E1E1"/>
<path transform="translate(55,435)" d="m0 0h5v4l-5 1z" fill="#E3E1E1"/>
<path transform="translate(1108,365)" d="m0 0 3 1-1 6-4-1z" fill="#E3E1E1"/>
<path transform="translate(947,357)" d="m0 0h4v8l-1 2h-2v-8z"/>
<path transform="translate(943,357)" d="m0 0 4 1-3 9h-2z"/>
<path transform="translate(551,350)" d="m0 0 3 1-1 6-4-1z" fill="#E3E1E1"/>
<path transform="translate(1340,273)" d="m0 0 5 1-1 4h-5z" fill="#E3E1E1"/>
<path transform="translate(29,216)" d="m0 0 3 1-3 4 3 1-5 1-1-4z"/>
<path transform="translate(693,68)" d="m0 0 5 1v3l-6 1z" fill="#E3E1E1"/>
</svg>
